<?xml version="1.0" standalone="no"?>
<!DOCTYPE svg PUBLIC "-//W3C//DTD SVG 20010904//EN"
 "http://www.w3.org/TR/2001/REC-SVG-20010904/DTD/svg10.dtd">
<svg version="1.0" xmlns="http://www.w3.org/2000/svg"
 width="8192.000000pt" height="8192.000000pt" viewBox="0 0 8192.000000 8192.000000"
 preserveAspectRatio="xMidYMid meet">
<metadata>
Created by potrace 1.11, written by Peter Selinger 2001-2013
</metadata>
<g transform="translate(0.000000,8192.000000) scale(0.100000,-0.100000)"
fill="#000000" stroke="none">
<path d="M71893 76775 c0 -8 4 -12 9 -9 5 3 6 10 3 15 -9 13 -12 11 -12 -6z"/>
<path d="M30869 76763 c-13 -16 -12 -17 4 -4 9 7 17 15 17 17 0 8 -8 3 -21
-13z"/>
<path d="M61589 76763 c-13 -16 -12 -17 4 -4 9 7 17 15 17 17 0 8 -8 3 -21
-13z"/>
<path d="M72095 76769 c-4 -6 -5 -12 -2 -15 2 -3 7 2 10 11 7 17 1 20 -8 4z"/>
<path d="M30515 76761 c-3 -5 -2 -12 3 -15 5 -3 9 1 9 9 0 17 -3 19 -12 6z"/>
<path d="M71930 76759 c0 -5 5 -7 10 -4 6 3 10 8 10 11 0 2 -4 4 -10 4 -5 0
-10 -5 -10 -11z"/>
<path d="M30215 76740 c3 -5 8 -10 11 -10 2 0 4 5 4 10 0 6 -5 10 -11 10 -5 0
-7 -4 -4 -10z"/>
<path d="M30590 76736 c0 -2 8 -10 18 -17 15 -13 16 -12 3 4 -13 16 -21 21
-21 13z"/>
<path d="M35870 76736 c0 -2 8 -10 18 -17 15 -13 16 -12 3 4 -13 16 -21 21
-21 13z"/>
<path d="M66590 76736 c0 -2 8 -10 18 -17 15 -13 16 -12 3 4 -13 16 -21 21
-21 13z"/>
<path d="M30150 76721 c0 -6 4 -13 10 -16 6 -3 7 1 4 9 -7 18 -14 21 -14 7z"/>
<path d="M72275 76720 c3 -5 8 -10 11 -10 2 0 4 5 4 10 0 6 -5 10 -11 10 -5 0
-7 -4 -4 -10z"/>
<path d="M30547 76683 c-11 -11 -17 -13 -17 -5 0 9 -6 10 -17 4 -21 -10 -33
-10 -50 1 -6 4 -14 3 -17 -2 -3 -5 -28 -9 -56 -8 -28 0 -53 -3 -57 -6 -14 -15
-24 -6 -12 11 13 16 12 16 -5 2 -20 -16 -24 -17 -111 -25 -124 -11 -158 -16
-168 -22 -6 -4 -7 -1 -2 8 7 11 6 12 -6 3 -25 -20 -69 -23 -80 -5 -9 14 -10
14 -5 -1 4 -14 0 -18 -19 -18 -30 0 -24 1 -84 -15 -37 -10 -51 -10 -55 -1 -3
7 -5 6 -5 -3 -1 -11 -4 -11 -17 -1 -12 11 -15 11 -12 0 2 -10 -8 -14 -34 -15
-21 0 -38 -3 -38 -6 0 -6 -70 -21 -105 -24 -5 0 -15 -4 -21 -7 -6 -4 -24 -10
-40 -13 -16 -2 -42 -7 -59 -11 -16 -3 -35 -10 -42 -16 -12 -10 -17 -4 -14 15
1 5 -3 6 -9 2 -6 -3 -8 -10 -5 -15 5 -7 -31 -19 -75 -25 -8 -1 -22 -5 -30 -9
-69 -28 -129 -43 -134 -33 -2 7 -5 5 -5 -4 -1 -16 -54 -35 -88 -32 -7 0 -11
-3 -8 -7 2 -4 -11 -12 -30 -17 -25 -8 -35 -8 -39 1 -2 6 -5 4 -5 -4 -1 -14
-84 -48 -103 -42 -5 1 -8 -2 -8 -7 0 -12 -60 -32 -73 -24 -5 3 -7 1 -4 -4 8
-12 -20 -26 -34 -17 -5 3 -9 1 -9 -5 0 -6 -7 -7 -17 -4 -10 4 -14 2 -9 -5 8
-13 -29 -26 -45 -16 -8 5 -9 3 -4 -6 6 -10 3 -12 -13 -8 -16 5 -19 2 -15 -11
4 -9 3 -13 -1 -9 -4 3 -30 -5 -57 -18 -27 -14 -55 -22 -62 -18 -6 4 -9 4 -5
-1 10 -10 -29 -38 -41 -31 -5 3 -12 -1 -15 -10 -4 -9 -13 -14 -21 -10 -8 3
-15 2 -15 -2 0 -14 -79 -54 -92 -46 -7 4 -8 3 -4 -4 10 -16 -6 -15 -24 1 -12
10 -12 9 -1 -5 11 -15 11 -19 -5 -25 -11 -4 -47 -24 -81 -45 -35 -21 -63 -34
-63 -30 0 4 -4 2 -8 -3 -10 -14 -90 -65 -102 -65 -5 0 -10 -4 -10 -8 0 -5 -19
-19 -42 -32 -38 -20 -69 -42 -115 -81 -7 -5 -13 -6 -13 -2 0 4 -5 0 -11 -9 -5
-10 -17 -18 -24 -18 -8 0 -15 -5 -15 -11 0 -5 -4 -7 -10 -4 -5 3 -10 2 -10 -3
0 -11 -60 -55 -76 -55 -7 0 -11 -4 -8 -8 2 -5 -8 -16 -23 -26 -15 -10 -44 -32
-63 -50 -19 -18 -38 -33 -43 -33 -4 0 -21 -12 -38 -27 -17 -16 -36 -27 -41
-25 -5 1 -7 -2 -4 -7 6 -9 -43 -47 -57 -43 -4 1 -6 -4 -5 -10 2 -7 -3 -12 -9
-10 -7 1 -13 -4 -13 -12 0 -17 -49 -51 -70 -48 -11 1 -12 0 -1 -4 9 -5 -13
-32 -69 -85 -45 -43 -86 -76 -91 -73 -5 3 -9 -2 -9 -11 0 -9 -9 -19 -20 -22
-11 -3 -17 -9 -15 -13 3 -5 -21 -35 -52 -68 -54 -56 -107 -115 -183 -204 -18
-21 -36 -35 -41 -32 -5 3 -7 -1 -4 -8 3 -7 -15 -34 -39 -61 -24 -26 -47 -54
-50 -63 -3 -8 -11 -12 -16 -9 -6 4 -9 3 -8 -2 3 -11 -20 -52 -43 -76 -9 -10
-30 -39 -45 -63 -15 -24 -32 -44 -36 -44 -4 0 -8 -6 -8 -13 0 -7 -14 -28 -31
-45 -17 -18 -28 -32 -25 -32 4 0 2 -9 -4 -20 -6 -11 -15 -18 -20 -15 -5 3 -12
0 -16 -6 -4 -8 -3 -9 4 -5 21 13 13 -10 -13 -38 -13 -14 -25 -29 -25 -31 -1
-15 -35 -75 -42 -75 -4 0 -8 -7 -8 -16 0 -11 -6 -13 -19 -9 -11 3 -22 1 -26
-4 -3 -7 0 -8 9 -5 9 4 16 1 16 -6 0 -15 -41 -84 -52 -88 -5 -2 -6 -8 -2 -13
3 -5 -2 -12 -10 -15 -9 -3 -14 -10 -11 -14 7 -11 -40 -91 -49 -83 -4 4 -4 0 0
-10 3 -10 1 -17 -5 -17 -6 0 -10 -6 -8 -12 1 -7 -4 -12 -11 -10 -8 1 -11 -2
-8 -7 9 -14 -44 -122 -56 -115 -7 4 -8 2 -4 -4 4 -6 -17 -65 -46 -131 -45
-102 -55 -118 -68 -108 -12 9 -13 9 -2 -3 15 -18 16 -44 0 -34 -6 4 -8 3 -5
-3 8 -13 -28 -118 -41 -118 -6 0 -14 -4 -19 -9 -5 -5 -3 -6 5 -2 15 9 17 -20
2 -29 -6 -4 -8 -10 -5 -15 3 -5 1 -11 -5 -15 -5 -3 -10 -15 -10 -26 0 -10 -5
-19 -11 -19 -5 0 -7 -4 -4 -10 7 -12 -26 -110 -38 -110 -4 0 -5 -5 -2 -10 9
-15 -17 -80 -29 -73 -6 4 -5 0 2 -9 9 -11 10 -18 2 -23 -6 -3 -8 -10 -5 -15 3
-5 0 -14 -7 -22 -7 -7 -13 -22 -13 -33 0 -11 -6 -38 -13 -60 -8 -22 -16 -51
-19 -65 -13 -71 -25 -116 -36 -129 -7 -8 -7 -12 -1 -9 6 4 1 -38 -12 -101 -24
-116 -34 -170 -40 -216 -8 -67 -15 -111 -18 -130 -3 -11 -5 -37 -5 -58 -1 -21
-5 -36 -10 -32 -5 3 -13 1 -16 -5 -4 -6 -1 -9 6 -8 11 3 16 -35 9 -59 -4 -11
-6 -48 -8 -127 -2 -60 -4 -67 -19 -62 -17 6 -17 5 -1 -7 13 -10 14 -17 6 -25
-8 -8 -8 -15 2 -27 10 -12 10 -15 0 -15 -9 0 -10 -3 -1 -13 6 -8 8 -17 5 -20
-3 -3 -6 -3527 -6 -7831 0 -5893 -3 -7824 -12 -7819 -8 5 -8 3 1 -8 8 -10 11
-3140 11 -12719 1 -6988 1 -12739 1 -12780 0 -41 1 -90 1 -108 1 -25 -3 -32
-12 -26 -9 5 -8 2 1 -10 9 -11 16 -45 17 -89 1 -40 5 -106 8 -147 5 -65 9
-104 20 -205 1 -11 -3 -26 -8 -34 -8 -11 -8 -13 2 -7 7 4 12 2 13 -6 0 -7 2
-22 5 -33 2 -11 5 -46 6 -77 2 -32 7 -58 12 -58 5 0 2 -8 -5 -17 -8 -9 -9 -14
-3 -10 19 11 24 -32 6 -44 -16 -10 -16 -10 -1 -5 12 3 18 -3 22 -19 3 -16 0
-22 -7 -18 -8 5 -8 2 0 -8 19 -24 33 -106 20 -119 -8 -8 -7 -11 3 -8 8 2 15
-8 18 -27 8 -52 11 -70 13 -72 2 -2 4 -7 5 -13 1 -5 3 -11 5 -12 3 -4 10 -50
13 -80 1 -14 6 -24 11 -21 5 4 7 -4 4 -15 -4 -12 -2 -22 4 -22 5 0 7 -4 3 -9
-3 -5 -1 -13 5 -16 8 -5 7 -12 -2 -23 -10 -12 -10 -14 0 -8 6 4 13 2 13 -3 2
-17 8 -35 30 -89 6 -17 6 -21 -2 -16 -6 3 -4 -4 4 -17 9 -13 17 -28 18 -34 1
-5 5 -21 10 -33 5 -13 7 -27 4 -32 -3 -5 -2 -10 3 -12 13 -5 53 -119 45 -130
-4 -7 -1 -8 7 -3 10 6 12 3 8 -13 -4 -12 -3 -20 2 -17 4 3 14 -15 21 -40 7
-25 18 -45 23 -45 5 0 7 -3 3 -6 -3 -4 0 -19 9 -35 8 -16 11 -29 8 -29 -4 0 1
-9 11 -20 9 -10 15 -26 11 -35 -3 -9 -2 -14 3 -11 11 7 33 -53 24 -67 -3 -6
-1 -7 5 -3 11 6 13 2 12 -19 -1 -3 6 -13 15 -21 8 -9 13 -19 10 -24 -3 -5 -2
-10 2 -12 11 -5 48 -81 46 -96 0 -7 1 -11 4 -8 9 8 54 -85 47 -96 -4 -7 -2 -8
4 -4 7 4 12 2 12 -4 0 -6 11 -28 25 -50 14 -22 23 -40 19 -40 -3 0 2 -7 10
-16 9 -8 14 -19 11 -24 -3 -5 -1 -10 3 -12 11 -4 112 -166 112 -179 0 -5 3 -9
8 -9 4 0 16 -16 27 -36 10 -19 27 -45 37 -57 10 -11 16 -27 14 -34 -3 -7 -1
-12 5 -10 6 1 16 -7 22 -18 7 -11 17 -23 22 -27 6 -5 6 -8 0 -8 -5 0 1 -7 13
-16 14 -10 21 -22 18 -31 -4 -9 1 -17 14 -20 18 -5 37 -38 32 -56 -1 -5 2 -6
7 -3 5 3 17 -7 27 -22 10 -15 24 -33 31 -40 7 -8 10 -18 7 -24 -4 -6 -2 -8 3
-5 6 4 27 -14 48 -38 32 -39 35 -48 24 -63 -11 -14 -11 -15 0 -5 11 9 19 6 37
-12 13 -13 24 -29 24 -35 0 -6 5 -8 10 -5 5 3 10 2 10 -3 0 -5 18 -28 40 -51
22 -23 37 -47 34 -53 -4 -6 -3 -8 3 -5 10 6 143 -127 143 -144 0 -6 5 -7 10
-4 6 3 10 2 10 -2 0 -10 56 -73 64 -73 4 0 34 -28 69 -61 34 -34 77 -73 94
-86 18 -14 30 -30 26 -36 -3 -5 -2 -7 4 -4 12 8 125 -92 118 -104 -4 -5 0 -6
8 -4 7 3 25 -5 39 -18 14 -13 41 -35 60 -48 18 -13 39 -29 46 -36 7 -7 38 -29
68 -49 29 -20 54 -40 54 -45 0 -5 7 -9 15 -9 8 0 15 -4 15 -10 0 -5 5 -10 12
-10 6 0 20 -7 30 -17 21 -19 56 -40 81 -49 9 -3 17 -13 17 -20 0 -8 9 -14 20
-14 12 0 32 -11 45 -25 14 -13 25 -22 25 -19 0 2 9 0 20 -6 11 -6 17 -16 14
-22 -4 -6 -3 -8 4 -4 13 8 75 -28 65 -38 -4 -4 1 -4 11 0 13 5 17 4 12 -4 -5
-8 -2 -10 8 -6 9 3 16 1 16 -6 0 -6 4 -9 9 -6 5 3 14 0 20 -8 6 -7 29 -21 51
-31 22 -10 37 -22 33 -28 -3 -6 -2 -7 4 -4 15 9 95 -32 87 -44 -4 -7 1 -9 14
-5 14 5 24 1 30 -9 5 -9 11 -15 13 -14 7 6 99 -32 99 -40 0 -4 6 -8 13 -8 6 0
42 -15 79 -32 37 -17 70 -31 73 -31 3 1 17 -6 31 -14 13 -9 24 -14 24 -11 0 4
12 0 28 -9 38 -20 184 -76 200 -76 6 0 12 -4 12 -8 0 -4 12 -9 27 -10 15 -1
29 -5 32 -10 3 -4 17 -9 31 -10 14 -2 29 -8 35 -13 5 -5 19 -9 32 -9 13 0 23
-4 23 -8 0 -4 12 -9 28 -10 15 -1 28 -6 30 -12 2 -5 10 -6 19 -3 9 4 14 2 11
-3 -4 -5 4 -9 15 -10 23 -1 33 -3 132 -30 33 -9 73 -18 90 -21 16 -3 36 -13
43 -22 8 -9 11 -10 7 -3 -4 7 0 12 9 12 9 0 16 -4 16 -8 0 -5 14 -7 30 -6 17
1 30 -1 30 -5 0 -4 8 -8 18 -8 48 1 73 -4 68 -12 -4 -5 3 -7 14 -4 11 3 28 -1
37 -8 12 -10 14 -10 9 -2 -9 16 -9 15 34 3 19 -5 57 -12 85 -15 50 -6 90 -12
90 -15 0 -1 29 -3 65 -6 40 -3 72 -11 85 -22 19 -16 19 -16 6 1 -13 17 -12 18
15 12 16 -4 65 -8 109 -11 44 -3 100 -6 125 -7 25 -2 52 -7 59 -12 10 -6 12
-4 6 5 -6 9 -4 11 5 5 7 -5 34 -8 59 -8 25 1 52 -4 60 -11 11 -8 13 -8 8 0
-10 17 35772 17 35792 1 11 -9 13 -9 8 -1 -5 9 667 12 2681 13 1478 0 2699 2
2714 4 17 3 25 0 21 -6 -4 -6 -1 -7 8 -1 8 5 55 10 104 11 50 1 90 3 90 4 0 0
14 2 30 3 41 4 149 15 209 21 27 3 53 8 59 12 6 4 7 1 2 -8 -8 -12 -6 -12 8 0
14 11 17 11 17 0 0 -12 2 -12 9 0 5 8 22 15 37 16 47 4 109 15 142 25 23 6 32
5 32 -3 0 -7 4 -6 10 3 5 8 10 12 10 8 0 -3 16 -2 36 4 30 8 40 6 57 -9 12 -9
16 -11 10 -3 -20 22 -16 27 26 34 22 3 47 9 57 13 13 5 15 3 9 -8 -5 -9 -2 -8
11 3 11 9 33 19 49 22 17 3 43 8 60 12 16 3 35 10 42 16 12 10 17 4 14 -15 -1
-5 3 -6 9 -2 6 3 8 10 5 15 -5 7 31 19 75 25 8 1 26 7 40 12 88 35 214 73 227
69 8 -3 12 -2 9 3 -3 5 7 14 23 19 22 8 31 7 35 -1 2 -7 5 -5 5 4 1 11 18 21
49 30 26 7 50 12 55 11 4 -1 7 2 7 7 0 12 60 32 73 24 5 -3 7 -1 4 4 -8 12 20
26 34 17 5 -3 9 -1 9 3 0 13 80 44 92 37 6 -4 8 -3 5 3 -8 13 61 46 76 37 7
-4 9 -4 5 1 -8 8 81 56 93 50 4 -3 10 2 13 11 4 9 13 14 21 10 8 -3 15 -2 15
2 0 14 79 54 92 46 7 -4 8 -3 4 4 -10 16 6 15 24 0 12 -11 12 -10 1 4 -11 15
-11 19 5 25 11 4 47 24 81 44 33 21 64 35 67 32 3 -4 6 -2 6 4 0 9 35 29 53
31 5 0 15 9 22 18 11 16 15 17 31 4 17 -14 18 -13 6 1 -11 15 -6 20 35 44 42
25 73 47 121 86 6 5 12 6 12 2 0 -4 5 0 11 10 5 9 16 17 24 17 7 0 15 3 17 8
8 18 79 62 90 56 6 -4 8 -3 4 4 -3 6 8 21 26 33 18 13 47 36 63 51 31 28 52
37 39 16 -4 -7 -3 -8 5 -4 6 4 9 11 6 16 -6 10 63 66 77 62 5 -1 7 2 4 7 -6 9
43 47 56 43 5 -1 7 4 5 11 -1 6 4 11 11 10 6 -2 12 3 12 11 0 17 49 51 70 48
12 -1 12 0 1 5 -10 4 5 23 49 64 34 33 67 56 73 52 5 -3 8 -2 4 3 -7 13 19 47
31 40 5 -3 12 3 15 14 3 11 13 20 22 20 9 0 14 4 10 9 -3 6 21 36 52 69 86 89
154 165 164 185 6 10 15 14 21 11 6 -4 8 -3 5 3 -8 13 27 46 37 36 4 -4 5 -1
2 7 -4 9 12 34 38 63 24 26 47 54 50 63 3 8 11 12 16 9 6 -4 9 -3 8 2 -3 11
20 52 43 76 9 10 30 39 45 63 15 24 32 44 36 44 4 0 8 6 8 13 1 16 35 57 49
57 6 0 8 7 5 15 -4 8 -1 15 5 15 6 0 11 4 11 9 0 12 91 161 113 185 9 11 17
26 17 33 0 8 5 11 12 7 7 -4 8 -3 4 4 -6 11 18 60 37 73 5 3 9 10 10 15 1 5 5
8 9 7 4 -2 5 4 2 12 -9 21 6 41 18 24 6 -10 7 -7 3 10 -5 17 -4 22 5 16 9 -5
11 -4 6 4 -4 6 2 23 12 39 11 15 21 32 23 37 2 6 8 9 12 7 5 -1 6 2 3 7 -9 14
44 122 56 115 7 -4 8 -2 4 4 -4 6 17 65 46 131 45 102 55 118 68 108 12 -9 13
-9 3 3 -16 18 -17 44 -1 34 6 -4 8 -3 5 3 -8 13 28 118 41 118 6 0 14 4 19 9
5 5 3 6 -4 2 -16 -9 -18 20 -3 29 6 4 8 10 5 15 -3 5 -1 11 5 15 5 3 10 15 10
26 0 10 5 19 11 19 5 0 7 4 4 10 -7 12 26 110 38 110 4 0 5 5 2 10 -9 15 17
80 29 73 6 -4 5 0 -2 9 -9 11 -10 18 -2 23 6 3 8 10 5 15 -3 5 0 14 7 22 7 7
13 22 13 33 0 11 6 38 13 60 8 22 16 51 19 65 13 71 25 116 36 129 7 8 7 12 1
9 -6 -4 -1 38 12 101 24 116 34 170 40 216 8 67 15 111 18 130 3 11 5 37 5 58
1 21 5 36 10 32 5 -3 13 -1 16 5 4 6 1 9 -6 8 -6 -2 -14 3 -17 11 -3 9 0 11 8
6 9 -6 9 -3 1 12 -6 11 -7 23 -4 27 4 3 8 43 11 89 2 48 8 85 15 89 9 6 9 8 0
8 -14 0 -14 39 1 59 9 12 8 13 -2 7 -11 -7 -12 -4 -3 13 7 11 8 21 3 21 -5 0
-6 23 -2 50 4 28 3 50 -1 50 -5 0 -6 7 -3 15 7 18 11 41185 4 41185 -12 0 -4
109 10 126 14 17 14 18 -1 6 -15 -11 -17 -7 -19 45 -4 117 -7 160 -14 171 -4
6 2 20 14 32 11 11 16 20 12 20 -4 0 -13 -5 -20 -12 -9 -9 -12 -3 -12 29 0 23
-3 49 -7 59 -5 13 -3 15 8 9 12 -8 12 -6 0 8 -7 10 -16 36 -18 60 -2 23 -8 65
-13 92 -5 28 -9 57 -9 65 0 8 -7 48 -16 89 -8 40 -12 77 -9 82 3 5 0 9 -6 9
-6 0 -10 8 -7 18 2 9 -3 30 -11 46 -11 23 -11 27 0 20 10 -6 11 -5 2 7 -10 12
-25 64 -38 130 -2 8 -5 21 -8 29 -23 67 -27 90 -21 105 4 12 3 16 -4 12 -7 -4
-15 12 -22 41 -7 26 -21 71 -31 99 -11 29 -17 60 -13 69 4 10 2 15 -4 11 -8
-5 -46 86 -55 133 -2 8 -7 18 -11 21 -4 3 -9 16 -10 27 -1 12 -5 22 -10 22 -5
0 -7 9 -4 20 3 11 2 18 -3 15 -4 -2 -15 17 -24 43 -10 26 -24 59 -32 75 -8 15
-12 32 -9 37 3 6 2 10 -3 10 -9 0 -117 219 -114 233 1 4 -2 7 -8 7 -12 0 -9
22 5 33 6 5 3 6 -8 3 -14 -4 -23 7 -44 52 -15 31 -29 59 -33 62 -16 15 -40 72
-34 82 5 7 3 8 -6 3 -10 -6 -12 -4 -7 9 4 10 3 15 -3 11 -12 -7 -33 32 -24 47
4 6 3 8 -3 5 -11 -7 -46 39 -46 60 0 7 -4 13 -8 13 -14 0 -51 69 -43 81 4 7 3
9 -3 6 -12 -8 -54 47 -56 73 -1 10 -5 17 -9 14 -4 -3 -20 15 -35 38 -15 24
-34 49 -41 56 -7 8 -19 27 -27 43 -9 16 -21 29 -27 29 -6 0 -9 3 -5 6 3 3 -5
17 -19 31 -13 13 -22 29 -19 34 4 5 -1 9 -9 9 -15 0 -21 12 -17 33 1 5 -3 6
-8 2 -12 -7 -33 29 -23 40 4 5 2 5 -4 2 -14 -8 -57 41 -48 55 4 6 3 8 -3 5 -6
-4 -24 9 -39 28 -16 19 -46 54 -66 77 -20 23 -35 45 -32 50 3 5 1 7 -4 6 -12
-3 -112 97 -112 112 0 5 -5 10 -11 10 -15 0 -59 51 -59 68 0 7 -4 11 -8 8 -10
-6 -92 68 -92 83 0 6 -4 10 -8 9 -5 -2 -43 29 -86 67 -59 53 -76 75 -72 90 5
18 4 18 -8 3 -12 -16 -14 -15 -32 5 -10 12 -18 25 -16 30 1 4 -2 6 -7 5 -11
-4 -141 92 -141 104 0 4 -6 8 -14 8 -8 0 -21 8 -28 18 -7 10 -21 21 -32 25
-16 6 -16 10 -5 25 13 15 12 16 -3 4 -19 -15 -42 -7 -32 11 4 7 4 9 -1 5 -4
-4 -55 25 -114 65 -58 40 -134 90 -168 111 -35 21 -60 42 -58 47 3 4 0 11 -6
15 -8 4 -9 3 -5 -4 12 -19 -7 -14 -46 13 -20 14 -42 25 -47 25 -6 0 -11 4 -11
9 0 5 -11 12 -25 15 -16 4 -23 11 -19 18 4 7 3 8 -5 4 -6 -4 -24 2 -40 13 -16
12 -34 21 -40 21 -6 0 -11 5 -11 11 0 5 -4 8 -8 5 -9 -6 -64 28 -62 38 1 4 0
10 -3 14 -2 4 -2 1 0 -6 2 -8 -4 -12 -15 -10 -9 2 -16 10 -14 17 1 7 -2 10 -7
7 -10 -7 -104 32 -109 45 -2 5 -8 7 -13 3 -5 -3 -9 0 -9 7 0 7 -3 9 -6 6 -4
-4 -19 0 -33 8 -26 14 -97 46 -116 51 -32 9 -175 71 -171 75 2 2 -5 5 -17 5
-35 2 -109 34 -125 52 -7 9 -10 11 -6 3 6 -11 3 -13 -12 -7 -10 4 -24 9 -31
10 -7 1 -16 5 -19 9 -4 4 -16 7 -26 7 -10 0 -18 3 -18 8 0 4 -10 8 -22 8 -42
3 -218 60 -211 69 5 4 3 5 -3 2 -14 -8 -75 3 -70 12 2 3 -17 7 -42 8 -25 1
-48 6 -51 10 -3 4 -24 9 -46 11 -56 4 -66 9 -59 29 5 16 5 17 -5 1 -14 -21
-79 -13 -99 11 -8 9 -11 10 -7 4 4 -9 -1 -13 -15 -13 -12 0 -19 3 -17 8 3 4
-14 7 -36 8 -70 1 -152 15 -159 27 -6 9 -8 8 -8 -1 0 -8 -5 -10 -12 -5 -7 4
-23 6 -35 4 -13 -1 -23 1 -23 6 0 5 -18 7 -40 5 -29 -3 -40 0 -40 9 0 11 -3
11 -10 -1 -5 -8 -10 -10 -10 -5 0 6 -45 11 -107 13 -86 3 -109 7 -120 20 -12
15 -12 15 -7 1 4 -13 -1 -16 -25 -15 -17 0 -31 4 -31 9 0 4 -8 3 -18 -2 -11
-6 -24 -6 -32 -1 -9 5 -19 5 -27 -2 -9 -7 -13 -7 -13 0 0 6 -7 9 -15 6 -8 -4
-23 0 -32 7 -12 10 -15 10 -9 2 5 -9 0 -13 -14 -13 -14 0 -19 4 -14 13 6 9 5
9 -7 0 -20 -16 -5018 -16 -5038 0 -11 9 -13 9 -8 1 10 -17 -30692 -17 -30712
-1 -11 9 -13 9 -8 1 5 -9 -664 -12 -2682 -12 -1479 0 -2695 -3 -2702 -8 -9 -5
-10 -2 -6 9 8 21 6 21 -16 0z"/>
<path d="M30150 76678 c0 -4 4 -8 9 -8 6 0 12 4 15 8 3 5 -1 9 -9 9 -8 0 -15
-4 -15 -9z"/>
<path d="M72380 76686 c0 -2 8 -10 18 -17 15 -13 16 -12 3 4 -13 16 -21 21
-21 13z"/>
<path d="M29850 76640 c0 -5 5 -10 11 -10 5 0 7 5 4 10 -3 6 -8 10 -11 10 -2
0 -4 -4 -4 -10z"/>
<path d="M72440 76640 c0 -5 5 -10 11 -10 5 0 7 5 4 10 -3 6 -8 10 -11 10 -2
0 -4 -4 -4 -10z"/>
<path d="M72799 76593 c-13 -16 -12 -17 4 -4 16 13 21 21 13 21 -2 0 -10 -8
-17 -17z"/>
<path d="M73035 76601 c-3 -5 -2 -12 3 -15 5 -3 9 1 9 9 0 17 -3 19 -12 6z"/>
<path d="M29375 76580 c3 -5 8 -10 11 -10 2 0 4 5 4 10 0 6 -5 10 -11 10 -5 0
-7 -4 -4 -10z"/>
<path d="M29570 76579 c0 -5 5 -7 10 -4 6 3 10 8 10 11 0 2 -4 4 -10 4 -5 0
-10 -5 -10 -11z"/>
<path d="M29509 76563 c-13 -16 -12 -17 4 -4 16 13 21 21 13 21 -2 0 -10 -8
-17 -17z"/>
<path d="M72994 76560 c0 -13 4 -16 10 -10 7 7 7 13 0 20 -6 6 -10 3 -10 -10z"/>
<path d="M73030 76560 c0 -5 5 -10 11 -10 5 0 7 5 4 10 -3 6 -8 10 -11 10 -2
0 -4 -4 -4 -10z"/>
<path d="M73170 76539 c0 -5 5 -7 10 -4 6 3 10 8 10 11 0 2 -4 4 -10 4 -5 0
-10 -5 -10 -11z"/>
<path d="M73220 76526 c0 -2 8 -10 18 -17 15 -13 16 -12 3 4 -13 16 -21 21
-21 13z"/>
<path d="M29034 76440 c0 -13 4 -16 10 -10 7 7 7 13 0 20 -6 6 -10 3 -10 -10z"/>
<path d="M29070 76439 c0 -5 5 -7 10 -4 6 3 10 8 10 11 0 2 -4 4 -10 4 -5 0
-10 -5 -10 -11z"/>
<path d="M28876 76407 c3 -10 9 -15 12 -12 3 3 0 11 -7 18 -10 9 -11 8 -5 -6z"/>
<path d="M73396 76407 c3 -10 9 -15 12 -12 3 3 0 11 -7 18 -10 9 -11 8 -5 -6z"/>
<path d="M73434 76409 c-3 -6 -2 -15 3 -20 5 -5 9 -1 9 11 0 23 -2 24 -12 9z"/>
<path d="M73655 76380 c3 -5 8 -10 11 -10 2 0 4 5 4 10 0 6 -5 10 -11 10 -5 0
-7 -4 -4 -10z"/>
<path d="M28829 76363 c-13 -16 -12 -17 4 -4 9 7 17 15 17 17 0 8 -8 3 -21
-13z"/>
<path d="M73550 76376 c0 -2 8 -10 18 -17 15 -13 16 -12 3 4 -13 16 -21 21
-21 13z"/>
<path d="M28679 76338 c-5 -18 -6 -38 -1 -34 7 8 12 36 6 36 -2 0 -4 -1 -5 -2z"/>
<path d="M73935 76260 c-3 -5 -1 -10 4 -10 6 0 11 5 11 10 0 6 -2 10 -4 10 -3
0 -8 -4 -11 -10z"/>
<path d="M28450 76180 c0 -5 5 -10 11 -10 5 0 7 5 4 10 -3 6 -8 10 -11 10 -2
0 -4 -4 -4 -10z"/>
<path d="M28290 76159 c0 -5 5 -7 10 -4 6 3 10 8 10 11 0 2 -4 4 -10 4 -5 0
-10 -5 -10 -11z"/>
<path d="M74135 76100 c-3 -5 -1 -10 4 -10 6 0 11 5 11 10 0 6 -2 10 -4 10 -3
0 -8 -4 -11 -10z"/>
<path d="M28194 76080 c0 -13 4 -16 10 -10 7 7 7 13 0 20 -6 6 -10 3 -10 -10z"/>
<path d="M28256 76082 c-3 -5 1 -9 9 -9 8 0 12 4 9 9 -3 4 -7 8 -9 8 -2 0 -6
-4 -9 -8z"/>
<path d="M74276 76073 c-6 -14 -5 -15 5 -6 7 7 10 15 7 18 -3 3 -9 -2 -12 -12z"/>
<path d="M74276 76007 c3 -10 9 -15 12 -12 3 3 0 11 -7 18 -10 9 -11 8 -5 -6z"/>
<path d="M74436 75982 c-3 -5 1 -9 9 -9 8 0 12 4 9 9 -3 4 -7 8 -9 8 -2 0 -6
-4 -9 -8z"/>
<path d="M27919 75953 c-13 -16 -12 -17 4 -4 16 13 21 21 13 21 -2 0 -10 -8
-17 -17z"/>
<path d="M27955 75891 c-3 -5 -2 -12 3 -15 5 -3 9 1 9 9 0 17 -3 19 -12 6z"/>
<path d="M74456 75867 c3 -10 9 -15 12 -12 3 3 0 11 -7 18 -10 9 -11 8 -5 -6z"/>
<path d="M27700 75806 c0 -2 8 -10 18 -17 15 -13 16 -12 3 4 -13 16 -21 21
-21 13z"/>
<path d="M74655 75780 c3 -5 8 -10 11 -10 2 0 4 5 4 10 0 6 -5 10 -11 10 -5 0
-7 -4 -4 -10z"/>
<path d="M27635 75760 c-3 -5 -1 -10 4 -10 6 0 11 5 11 10 0 6 -2 10 -4 10 -3
0 -8 -4 -11 -10z"/>
<path d="M27670 75760 c0 -5 5 -10 11 -10 5 0 7 5 4 10 -3 6 -8 10 -11 10 -2
0 -4 -4 -4 -10z"/>
<path d="M27709 75723 c-13 -16 -12 -17 4 -4 16 13 21 21 13 21 -2 0 -10 -8
-17 -17z"/>
<path d="M74775 75720 c3 -5 8 -10 11 -10 2 0 4 5 4 10 0 6 -5 10 -11 10 -5 0
-7 -4 -4 -10z"/>
<path d="M74810 75700 c0 -5 5 -10 11 -10 5 0 7 5 4 10 -3 6 -8 10 -11 10 -2
0 -4 -4 -4 -10z"/>
<path d="M27535 75620 c-3 -5 -1 -10 4 -10 6 0 11 5 11 10 0 6 -2 10 -4 10 -3
0 -8 -4 -11 -10z"/>
<path d="M74870 75576 c0 -2 8 -10 18 -17 15 -13 16 -12 3 4 -13 16 -21 21
-21 13z"/>
<path d="M27370 75540 c0 -5 5 -10 11 -10 5 0 7 5 4 10 -3 6 -8 10 -11 10 -2
0 -4 -4 -4 -10z"/>
<path d="M74970 75540 c0 -5 5 -10 11 -10 5 0 7 5 4 10 -3 6 -8 10 -11 10 -2
0 -4 -4 -4 -10z"/>
<path d="M27350 75481 c0 -6 4 -13 10 -16 6 -3 7 1 4 9 -7 18 -14 21 -14 7z"/>
<path d="M75030 75440 c0 -5 5 -10 11 -10 5 0 7 5 4 10 -3 6 -8 10 -11 10 -2
0 -4 -4 -4 -10z"/>
<path d="M75035 75400 c3 -5 8 -10 11 -10 2 0 4 5 4 10 0 6 -5 10 -11 10 -5 0
-7 -4 -4 -10z"/>
<path d="M75170 75399 c0 -5 5 -7 10 -4 6 3 10 8 10 11 0 2 -4 4 -10 4 -5 0
-10 -5 -10 -11z"/>
<path d="M27276 75362 c-3 -5 1 -9 9 -9 8 0 12 4 9 9 -3 4 -7 8 -9 8 -2 0 -6
-4 -9 -8z"/>
<path d="M27269 75323 c-13 -16 -12 -17 4 -4 16 13 21 21 13 21 -2 0 -10 -8
-17 -17z"/>
<path d="M27130 75319 c0 -5 5 -7 10 -4 6 3 10 8 10 11 0 2 -4 4 -10 4 -5 0
-10 -5 -10 -11z"/>
<path d="M75220 75326 c0 -2 8 -10 18 -17 15 -13 16 -12 3 4 -13 16 -21 21
-21 13z"/>
<path d="M27175 75300 c-3 -5 -1 -10 4 -10 6 0 11 5 11 10 0 6 -2 10 -4 10 -3
0 -8 -4 -11 -10z"/>
<path d="M75235 75249 c-4 -6 -5 -12 -2 -15 2 -3 7 2 10 11 7 17 1 20 -8 4z"/>
<path d="M75270 75256 c0 -2 8 -10 18 -17 15 -13 16 -12 3 4 -13 16 -21 21
-21 13z"/>
<path d="M27030 75220 c0 -5 5 -10 11 -10 5 0 7 5 4 10 -3 6 -8 10 -11 10 -2
0 -4 -4 -4 -10z"/>
<path d="M75330 75140 c0 -5 5 -10 11 -10 5 0 7 5 4 10 -3 6 -8 10 -11 10 -2
0 -4 -4 -4 -10z"/>
<path d="M75389 75123 c-13 -16 -12 -17 4 -4 16 13 21 21 13 21 -2 0 -10 -8
-17 -17z"/>
<path d="M26920 75080 c-9 -6 -10 -10 -3 -10 6 0 15 5 18 10 8 12 4 12 -15 0z"/>
<path d="M75500 75006 c0 -2 8 -10 18 -17 15 -13 16 -12 3 4 -13 16 -21 21
-21 13z"/>
<path d="M26850 74979 c0 -5 5 -7 10 -4 6 3 10 8 10 11 0 2 -4 4 -10 4 -5 0
-10 -5 -10 -11z"/>
<path d="M75510 74921 c0 -6 4 -13 10 -16 6 -3 7 1 4 9 -7 18 -14 21 -14 7z"/>
<path d="M26850 74900 c0 -5 5 -10 11 -10 5 0 7 5 4 10 -3 6 -8 10 -11 10 -2
0 -4 -4 -4 -10z"/>
<path d="M26750 74816 c0 -2 8 -10 18 -17 15 -13 16 -12 3 4 -13 16 -21 21
-21 13z"/>
<path d="M75735 74780 c-3 -5 -1 -10 4 -10 6 0 11 5 11 10 0 6 -2 10 -4 10 -3
0 -8 -4 -11 -10z"/>
<path d="M75770 74659 c0 -5 5 -7 10 -4 6 3 10 8 10 11 0 2 -4 4 -10 4 -5 0
-10 -5 -10 -11z"/>
<path d="M26610 74619 c0 -5 5 -7 10 -4 6 3 10 8 10 11 0 2 -4 4 -10 4 -5 0
-10 -5 -10 -11z"/>
<path d="M75750 74606 c0 -2 7 -7 16 -10 8 -3 12 -2 9 4 -6 10 -25 14 -25 6z"/>
<path d="M26510 74561 c0 -6 4 -13 10 -16 6 -3 7 1 4 9 -7 18 -14 21 -14 7z"/>
<path d="M75860 74565 c0 -2 6 -8 13 -14 10 -8 14 -7 14 2 0 8 -6 14 -14 14
-7 0 -13 -1 -13 -2z"/>
<path d="M75910 74456 c0 -2 8 -10 18 -17 15 -13 16 -12 3 4 -13 16 -21 21
-21 13z"/>
<path d="M26433 74435 c0 -8 4 -12 9 -9 5 3 6 10 3 15 -9 13 -12 11 -12 -6z"/>
<path d="M26469 74403 c-13 -16 -12 -17 4 -4 9 7 17 15 17 17 0 8 -8 3 -21
-13z"/>
<path d="M75989 74363 c-13 -16 -12 -17 4 -4 9 7 17 15 17 17 0 8 -8 3 -21
-13z"/>
<path d="M26390 74278 c0 -4 4 -8 9 -8 6 0 12 4 15 8 3 5 -1 9 -9 9 -8 0 -15
-4 -15 -9z"/>
<path d="M26295 74220 c3 -5 8 -10 11 -10 2 0 4 5 4 10 0 6 -5 10 -11 10 -5 0
-7 -4 -4 -10z"/>
<path d="M76055 74180 c3 -5 8 -10 11 -10 2 0 4 5 4 10 0 6 -5 10 -11 10 -5 0
-7 -4 -4 -10z"/>
<path d="M76145 74120 c-3 -6 1 -7 9 -4 18 7 21 14 7 14 -6 0 -13 -4 -16 -10z"/>
<path d="M26280 74086 c0 -2 8 -10 18 -17 15 -13 16 -12 3 4 -13 16 -21 21
-21 13z"/>
<path d="M76113 74045 c0 -8 4 -12 9 -9 5 3 6 10 3 15 -9 13 -12 11 -12 -6z"/>
<path d="M76210 73860 c0 -5 5 -10 11 -10 5 0 7 5 4 10 -3 6 -8 10 -11 10 -2
0 -4 -4 -4 -10z"/>
<path d="M76279 73858 c-5 -18 -6 -38 -1 -34 7 8 12 36 6 36 -2 0 -4 -1 -5 -2z"/>
<path d="M76215 73820 c3 -5 8 -10 11 -10 2 0 4 5 4 10 0 6 -5 10 -11 10 -5 0
-7 -4 -4 -10z"/>
<path d="M26107 73759 c7 -7 15 -10 18 -7 3 3 -2 9 -12 12 -14 6 -15 5 -6 -5z"/>
<path d="M26105 73720 c-3 -6 1 -7 9 -4 18 7 21 14 7 14 -6 0 -13 -4 -16 -10z"/>
<path d="M76330 73579 c0 -5 5 -7 10 -4 6 3 10 8 10 11 0 2 -4 4 -10 4 -5 0
-10 -5 -10 -11z"/>
<path d="M76355 73520 c3 -5 8 -10 11 -10 2 0 4 5 4 10 0 6 -5 10 -11 10 -5 0
-7 -4 -4 -10z"/>
<path d="M76390 73521 c0 -6 4 -13 10 -16 6 -3 7 1 4 9 -7 18 -14 21 -14 7z"/>
<path d="M25980 73486 c0 -2 8 -10 18 -17 15 -13 16 -12 3 4 -13 16 -21 21
-21 13z"/>
<path d="M76450 73460 c0 -5 5 -10 11 -10 5 0 7 5 4 10 -3 6 -8 10 -11 10 -2
0 -4 -4 -4 -10z"/>
<path d="M76476 73407 c3 -10 9 -15 12 -12 3 3 0 11 -7 18 -10 9 -11 8 -5 -6z"/>
<path d="M25920 73400 c-9 -6 -10 -10 -3 -10 6 0 15 5 18 10 8 12 4 12 -15 0z"/>
<path d="M76415 73380 c-3 -5 -1 -10 4 -10 6 0 11 5 11 10 0 6 -2 10 -4 10 -3
0 -8 -4 -11 -10z"/>
<path d="M25906 73362 c-3 -5 1 -9 9 -9 8 0 15 4 15 9 0 4 -4 8 -9 8 -6 0 -12
-4 -15 -8z"/>
<path d="M76490 73139 c0 -5 5 -7 10 -4 6 3 10 8 10 11 0 2 -4 4 -10 4 -5 0
-10 -5 -10 -11z"/>
<path d="M76550 73081 c0 -6 4 -13 10 -16 6 -3 7 1 4 9 -7 18 -14 21 -14 7z"/>
<path d="M25794 72966 c1 -8 5 -18 8 -22 4 -3 5 1 4 10 -1 8 -5 18 -8 22 -4 3
-5 -1 -4 -10z"/>
<path d="M25749 72843 c-13 -16 -12 -17 4 -4 16 13 21 21 13 21 -2 0 -10 -8
-17 -17z"/>
<path d="M25730 72799 c0 -5 5 -7 10 -4 6 3 10 8 10 11 0 2 -4 4 -10 4 -5 0
-10 -5 -10 -11z"/>
<path d="M25730 72739 c0 -5 5 -7 10 -4 6 3 10 8 10 11 0 2 -4 4 -10 4 -5 0
-10 -5 -10 -11z"/>
<path d="M25770 72600 c0 -5 5 -10 11 -10 5 0 7 5 4 10 -3 6 -8 10 -11 10 -2
0 -4 -4 -4 -10z"/>
<path d="M76650 72540 c0 -5 5 -10 11 -10 5 0 7 5 4 10 -3 6 -8 10 -11 10 -2
0 -4 -4 -4 -10z"/>
<path d="M76679 72473 c-13 -16 -12 -17 4 -4 16 13 21 21 13 21 -2 0 -10 -8
-17 -17z"/>
<path d="M25680 72360 c-9 -6 -10 -10 -3 -10 6 0 15 5 18 10 8 12 4 12 -15 0z"/>
<path d="M76690 72260 c0 -5 5 -10 11 -10 5 0 7 5 4 10 -3 6 -8 10 -11 10 -2
0 -4 -4 -4 -10z"/>
<path d="M76747 72239 c7 -7 15 -10 18 -7 3 3 -2 9 -12 12 -14 6 -15 5 -6 -5z"/>
<path d="M25650 72220 c0 -5 5 -10 11 -10 5 0 7 5 4 10 -3 6 -8 10 -11 10 -2
0 -4 -4 -4 -10z"/>
<path d="M25690 72219 c0 -5 5 -7 10 -4 6 3 10 8 10 11 0 2 -4 4 -10 4 -5 0
-10 -5 -10 -11z"/>
<path d="M76719 72113 c-13 -16 -12 -17 4 -4 16 13 21 21 13 21 -2 0 -10 -8
-17 -17z"/>
<path d="M76775 71940 c-3 -5 -1 -10 4 -10 6 0 11 5 11 10 0 6 -2 10 -4 10 -3
0 -8 -4 -11 -10z"/>
<path d="M25670 71896 c0 -2 8 -10 18 -17 15 -13 16 -12 3 4 -13 16 -21 21
-21 13z"/>
<path d="M25655 71820 c-3 -5 -1 -10 4 -10 6 0 11 5 11 10 0 6 -2 10 -4 10 -3
0 -8 -4 -11 -10z"/>
<path d="M25675 71721 c-3 -5 -2 -12 3 -15 5 -3 9 1 9 9 0 17 -3 19 -12 6z"/>
<path d="M20069 71643 c-13 -16 -12 -17 4 -4 9 7 17 15 17 17 0 8 -8 3 -21
-13z"/>
<path d="M19990 71638 c0 -4 4 -8 9 -8 6 0 12 4 15 8 3 5 -1 9 -9 9 -8 0 -15
-4 -15 -9z"/>
<path d="M20035 71641 c-3 -5 -2 -12 3 -15 5 -3 9 1 9 9 0 17 -3 19 -12 6z"/>
<path d="M20230 71636 c7 -7 13 -7 20 0 6 6 3 10 -10 10 -13 0 -16 -4 -10 -10z"/>
<path d="M19815 71620 c-3 -5 -1 -10 4 -10 6 0 11 5 11 10 0 6 -2 10 -4 10 -3
0 -8 -4 -11 -10z"/>
<path d="M19869 71603 c-13 -16 -12 -17 4 -4 9 7 17 15 17 17 0 8 -8 3 -21
-13z"/>
<path d="M20354 71606 c1 -8 5 -18 8 -22 4 -3 5 1 4 10 -1 8 -5 18 -8 22 -4 3
-5 -1 -4 -10z"/>
<path d="M20389 71603 c-13 -16 -12 -17 4 -4 9 7 17 15 17 17 0 8 -8 3 -21
-13z"/>
<path d="M19690 71599 c0 -5 5 -7 10 -4 6 3 10 8 10 11 0 2 -4 4 -10 4 -5 0
-10 -5 -10 -11z"/>
<path d="M20235 71600 c3 -5 8 -10 11 -10 2 0 4 5 4 10 0 6 -5 10 -11 10 -5 0
-7 -4 -4 -10z"/>
<path d="M20316 71598 c3 -5 10 -6 15 -3 13 9 11 12 -6 12 -8 0 -12 -4 -9 -9z"/>
<path d="M19540 71580 c-12 -7 -10 -9 7 -7 12 0 19 5 17 9 -6 10 -6 10 -24 -2z"/>
<path d="M20237 71563 c-8 -7 -21 -8 -153 -16 -40 -2 -76 -7 -82 -11 -6 -3
-13 0 -15 6 -4 9 -8 9 -14 3 -12 -15 -33 -17 -33 -2 0 9 -2 9 -9 -1 -4 -8 -30
-15 -60 -16 -28 -2 -54 -6 -58 -9 -3 -4 -13 -1 -21 6 -13 9 -14 9 -8 0 5 -9
-2 -13 -26 -14 -18 0 -40 -2 -48 -4 -25 -5 -73 -14 -120 -20 -24 -4 -47 -8
-50 -10 -3 -2 -26 -6 -50 -9 -25 -3 -68 -12 -97 -19 -38 -10 -55 -11 -64 -3
-9 8 -10 8 -5 -1 4 -8 -3 -15 -21 -19 -92 -21 -221 -56 -237 -65 -13 -8 -16
-7 -11 1 4 7 -4 4 -18 -5 -14 -9 -30 -17 -34 -17 -4 0 -19 -4 -32 -9 -13 -5
-28 -8 -35 -7 -6 1 -21 -3 -34 -10 -12 -7 -28 -10 -34 -6 -7 5 -8 3 -3 -6 6
-10 4 -12 -8 -7 -9 3 -19 2 -22 -3 -4 -6 -13 -10 -21 -10 -9 0 -12 5 -8 12 4
7 3 8 -5 4 -6 -4 -9 -11 -6 -16 7 -11 -64 -32 -78 -23 -6 3 -7 1 -4 -4 4 -6
-6 -16 -23 -22 -17 -5 -30 -7 -30 -3 0 4 -4 2 -8 -4 -4 -6 -34 -21 -67 -34
-33 -13 -66 -28 -72 -33 -7 -5 -20 -7 -28 -3 -9 3 -14 2 -11 -3 3 -5 -8 -14
-24 -20 -17 -5 -30 -7 -30 -3 0 4 -4 2 -8 -4 -12 -18 -94 -55 -109 -50 -8 3
-11 1 -8 -4 10 -16 -26 -25 -37 -9 -8 11 -9 10 -4 -3 3 -12 0 -18 -9 -18 -8 0
-15 -4 -15 -9 0 -5 -12 -12 -26 -15 -15 -4 -33 -14 -41 -22 -9 -8 -22 -13 -30
-10 -8 3 -12 2 -9 -3 3 -4 -12 -16 -34 -26 -22 -10 -45 -24 -51 -31 -6 -7 -19
-11 -30 -9 -11 2 -17 0 -14 -6 4 -5 -5 -13 -18 -18 -14 -6 -28 -15 -32 -21 -3
-5 -11 -8 -16 -5 -5 4 -9 1 -9 -5 0 -7 -7 -9 -16 -6 -10 4 -13 2 -8 -6 5 -8 2
-9 -9 -5 -10 4 -16 2 -14 -6 1 -6 -8 -13 -21 -15 -12 -2 -20 -7 -17 -12 3 -5
-6 -12 -20 -16 -14 -3 -25 -10 -25 -14 0 -4 -13 -13 -30 -20 -16 -7 -30 -15
-30 -19 0 -13 -60 -42 -73 -35 -6 4 -9 4 -5 -1 9 -9 -9 -35 -24 -35 -5 0 -6 6
-2 13 4 7 3 9 -2 4 -5 -5 -9 -13 -9 -18 0 -5 -4 -10 -10 -11 -5 -2 -23 -15
-39 -30 -16 -15 -32 -25 -34 -23 -3 3 -16 -7 -29 -21 -13 -14 -30 -23 -38 -20
-9 3 -12 0 -9 -9 3 -8 -4 -19 -18 -26 -13 -6 -25 -15 -28 -18 -3 -4 -30 -26
-60 -49 -50 -39 -91 -74 -183 -155 -18 -16 -76 -70 -130 -120 -55 -51 -103
-92 -107 -92 -5 0 -12 -4 -17 -9 -5 -5 -3 -6 5 -2 6 4 12 5 12 3 0 -10 -134
-142 -141 -140 -5 2 -8 -1 -6 -5 4 -15 -53 -73 -64 -66 -8 4 -9 3 -5 -5 5 -7
-3 -22 -19 -37 -14 -13 -23 -24 -19 -24 3 0 -8 -14 -25 -32 -17 -17 -31 -35
-31 -40 0 -4 -7 -8 -16 -8 -8 0 -13 -3 -10 -8 8 -13 -22 -45 -35 -36 -8 4 -10
3 -5 -4 10 -17 -13 -55 -29 -48 -10 3 -12 0 -8 -11 5 -12 3 -14 -7 -8 -9 6
-11 4 -6 -4 9 -13 -22 -54 -34 -46 -4 3 -7 -3 -6 -13 0 -10 -6 -17 -15 -16
-10 1 -15 -5 -12 -15 2 -9 -22 -50 -52 -91 -31 -41 -65 -90 -77 -108 -11 -17
-25 -29 -30 -26 -7 4 -8 2 -4 -4 8 -13 -61 -132 -76 -132 -5 0 -6 -4 -3 -10 3
-5 1 -10 -4 -10 -6 0 -10 -3 -9 -7 4 -14 -42 -93 -54 -93 -6 0 -8 -3 -5 -6 9
-9 -12 -46 -22 -39 -5 2 -8 -1 -7 -8 2 -20 -108 -226 -118 -220 -5 3 -6 1 -2
-5 9 -15 -28 -95 -39 -85 -4 5 -5 3 -1 -4 3 -6 -1 -29 -11 -50 -44 -102 -57
-128 -62 -133 -3 -3 -7 -12 -8 -20 -6 -35 -51 -129 -58 -122 -5 4 -5 1 -1 -6
10 -16 -4 -59 -13 -43 -4 7 -8 -2 -8 -19 0 -16 -5 -40 -11 -53 -6 -12 -18 -46
-27 -75 -11 -34 -21 -50 -28 -46 -9 5 -9 3 0 -6 9 -10 9 -19 -2 -40 -8 -15
-11 -31 -7 -35 4 -5 -2 -5 -13 -1 -16 6 -18 5 -7 -5 13 -14 17 -33 5 -26 -5 3
-8 -5 -9 -16 -2 -44 -38 -162 -53 -175 -9 -8 -10 -11 -3 -7 7 4 12 0 12 -9 0
-9 -4 -16 -8 -16 -4 0 -9 -15 -10 -32 -2 -18 -9 -58 -17 -88 -18 -68 -23 -98
-24 -128 -1 -13 -5 -21 -10 -18 -4 3 -6 -10 -4 -29 2 -19 0 -35 -4 -35 -5 0
-8 -12 -9 -27 -2 -63 -15 -138 -27 -152 -6 -8 -7 -12 -1 -8 6 4 10 -2 8 -16
-1 -12 -3 -30 -3 -40 -1 -11 -6 -15 -13 -11 -7 5 -8 3 -2 -7 11 -19 5 -82 -9
-91 -9 -6 -8 -8 1 -8 8 0 10 -5 5 -12 -4 -7 -6 -25 -4 -40 1 -18 -2 -28 -11
-28 -8 0 -9 -3 -3 -8 18 -13 17 -42 -2 -43 -11 0 -13 -3 -5 -6 7 -3 12 -23 12
-49 0 -28 -4 -44 -12 -44 -9 0 -9 -3 -2 -8 11 -8 12 -71 1 -89 -4 -6 -3 -15 3
-18 8 -5 7 -12 -2 -23 -11 -13 -11 -14 1 -7 10 6 12 4 7 -4 -5 -7 -7 -10417
-7 -23134 1 -12717 2 -23131 2 -23142 -1 -95 -2 -105 -14 -98 -7 4 -6 -1 2
-11 9 -11 16 -45 17 -89 1 -40 5 -106 8 -147 5 -65 9 -104 20 -205 1 -11 -3
-26 -8 -34 -8 -11 -8 -13 1 -7 8 4 13 2 14 -6 0 -7 2 -22 5 -33 2 -11 5 -46 6
-77 2 -32 7 -58 12 -58 5 0 2 -8 -5 -17 -8 -9 -9 -14 -3 -10 19 11 24 -32 6
-44 -16 -10 -16 -10 -1 -5 12 3 18 -3 22 -19 3 -16 0 -22 -7 -18 -8 5 -8 2 0
-8 19 -24 33 -106 20 -119 -8 -8 -7 -11 3 -8 8 2 15 -8 18 -27 8 -52 11 -70
13 -72 2 -2 4 -7 5 -13 1 -5 3 -11 5 -12 3 -4 10 -50 13 -80 1 -14 6 -24 11
-21 5 4 7 -4 4 -15 -4 -12 -2 -22 4 -22 5 0 7 -4 3 -9 -3 -5 -1 -13 5 -16 8
-5 7 -12 -2 -23 -10 -12 -10 -14 0 -8 6 4 13 2 13 -3 2 -17 8 -35 30 -89 6
-17 6 -21 -2 -16 -6 3 -4 -4 4 -17 9 -13 17 -28 18 -34 1 -5 5 -21 10 -33 5
-13 7 -27 4 -32 -3 -5 -2 -10 3 -12 13 -5 53 -119 45 -130 -4 -7 -1 -8 7 -3
10 6 12 3 8 -13 -4 -12 -3 -20 2 -17 4 3 14 -15 21 -40 7 -25 18 -45 23 -45 5
0 7 -3 3 -6 -3 -4 0 -19 9 -35 8 -16 11 -29 8 -29 -4 0 1 -9 11 -20 9 -10 15
-26 11 -35 -3 -9 -2 -14 3 -11 11 7 33 -53 24 -67 -3 -6 -1 -7 5 -3 11 6 13 2
12 -19 -1 -3 6 -13 15 -21 8 -9 13 -19 10 -24 -3 -5 -2 -10 2 -12 11 -5 48
-81 46 -96 0 -7 1 -11 4 -8 9 8 54 -85 47 -96 -4 -7 -2 -8 4 -4 7 4 12 2 12
-4 0 -6 11 -28 25 -50 14 -22 23 -40 19 -40 -3 0 2 -7 10 -16 9 -8 14 -19 11
-24 -3 -5 -1 -10 3 -12 11 -4 112 -166 112 -179 0 -5 3 -9 8 -9 4 0 16 -16 27
-36 10 -19 27 -45 37 -57 10 -11 16 -27 14 -34 -3 -7 -1 -12 5 -10 6 1 16 -7
22 -18 7 -11 17 -23 22 -27 6 -5 6 -8 0 -8 -5 0 1 -7 13 -16 14 -10 21 -22 18
-31 -4 -9 1 -17 14 -20 18 -5 37 -38 32 -56 -1 -5 2 -6 7 -3 5 3 17 -7 27 -22
10 -15 24 -33 31 -40 7 -8 10 -18 7 -24 -4 -6 -2 -8 3 -5 6 4 27 -14 48 -38
32 -39 35 -48 24 -63 -11 -14 -11 -15 0 -5 11 9 19 6 37 -12 13 -13 24 -29 24
-35 0 -6 5 -8 10 -5 6 3 10 2 10 -3 0 -5 18 -28 40 -51 22 -23 37 -47 34 -53
-4 -6 -3 -8 3 -5 10 6 143 -127 143 -144 0 -6 5 -7 10 -4 5 3 10 2 10 -2 0
-10 56 -73 64 -73 4 0 34 -28 69 -61 34 -34 77 -73 94 -86 18 -14 30 -30 26
-36 -3 -5 -2 -7 4 -4 12 8 125 -92 118 -104 -4 -5 0 -6 8 -4 7 3 25 -5 39 -18
14 -13 41 -35 60 -48 18 -13 39 -29 46 -36 7 -7 38 -29 68 -49 29 -20 54 -40
54 -45 0 -5 7 -9 15 -9 8 0 15 -4 15 -10 0 -5 5 -10 12 -10 6 0 20 -7 30 -17
21 -19 56 -40 81 -49 9 -3 17 -13 17 -20 0 -8 9 -14 20 -14 12 0 32 -11 45
-25 14 -13 25 -22 25 -19 0 2 9 0 20 -6 11 -6 17 -16 14 -22 -4 -6 -3 -8 4 -4
13 8 75 -28 65 -38 -4 -4 1 -4 11 0 13 5 17 4 12 -4 -5 -8 -2 -10 8 -6 9 3 16
1 16 -6 0 -6 4 -9 9 -6 5 3 14 0 20 -8 6 -7 29 -21 51 -31 22 -10 37 -22 33
-28 -3 -6 -2 -7 4 -4 15 9 95 -32 87 -44 -4 -7 1 -9 14 -5 14 5 24 1 30 -9 5
-9 11 -15 13 -14 7 6 99 -32 99 -40 0 -4 6 -8 13 -8 6 0 42 -15 79 -32 37 -17
71 -32 75 -32 5 0 18 -7 30 -15 13 -8 23 -12 23 -9 0 4 12 0 28 -9 38 -20 184
-76 200 -76 6 0 12 -4 12 -8 0 -4 12 -9 27 -10 15 -1 29 -5 32 -10 3 -4 17 -9
31 -10 14 -2 29 -8 34 -13 6 -5 20 -9 33 -9 13 0 23 -4 23 -8 0 -4 12 -9 28
-10 15 -1 28 -6 30 -12 2 -5 10 -6 19 -3 9 4 14 2 11 -3 -4 -5 4 -9 15 -10 23
-1 33 -3 132 -30 33 -9 73 -18 90 -21 16 -3 36 -13 43 -22 8 -9 11 -10 7 -3
-4 7 0 12 9 12 9 0 16 -4 16 -8 0 -5 14 -7 30 -6 17 1 30 -1 30 -5 0 -4 8 -8
18 -8 48 1 73 -4 68 -12 -4 -5 3 -7 14 -4 11 3 28 -1 37 -8 12 -10 14 -10 9
-1 -9 15 -9 14 34 2 19 -5 57 -12 85 -15 50 -6 90 -12 90 -15 0 -1 29 -3 65
-6 40 -3 72 -11 85 -22 19 -16 19 -16 6 1 -13 17 -12 18 15 12 16 -4 65 -8
109 -11 44 -3 100 -6 125 -7 25 -2 52 -7 59 -12 10 -6 12 -4 6 5 -6 9 -4 11 5
5 7 -5 34 -8 59 -8 25 1 52 -4 60 -11 11 -8 13 -8 8 0 -10 17 25532 17 25552
1 11 -9 13 -9 8 -1 -10 17 10212 17 10232 1 11 -9 13 -9 8 -1 -5 9 1301 12
5253 10 3499 -1 5261 2 5264 9 3 6 5 4 5 -3 1 -9 6 -10 19 -3 9 5 19 10 22 12
3 1 16 -3 29 -10 13 -7 21 -9 17 -3 -3 6 23 10 67 12 98 2 143 6 155 14 6 3
13 0 15 -6 4 -9 8 -9 14 -3 12 15 33 17 33 2 0 -9 2 -9 9 1 4 7 31 14 60 16
28 2 54 6 58 9 3 4 13 1 21 -6 13 -9 14 -9 8 1 -5 8 2 12 26 13 18 0 40 2 48
4 25 5 73 14 120 20 24 4 47 8 50 10 3 2 26 6 50 9 25 3 68 12 97 19 38 10 55
11 64 3 9 -8 10 -8 5 1 -7 13 26 25 75 27 15 1 25 4 23 7 -1 3 32 14 74 24 42
9 82 20 87 23 6 4 15 7 20 9 6 1 20 4 32 7 12 2 31 10 43 16 12 6 24 9 27 6 3
-3 15 0 27 6 11 7 23 13 26 13 9 1 134 47 168 62 18 8 42 15 52 16 11 1 20 4
20 7 0 3 17 12 38 19 20 8 56 22 79 33 23 11 47 16 54 12 8 -4 9 -3 5 4 -4 7
-2 13 3 13 21 3 26 4 39 12 6 5 12 5 12 0 0 -4 4 -3 8 3 12 18 94 55 109 50 8
-3 11 -1 8 4 -10 16 26 25 37 9 8 -11 9 -10 4 3 -3 12 0 18 9 18 8 0 15 4 15
9 0 5 12 12 26 15 15 4 33 14 41 22 9 8 22 13 30 10 8 -3 12 -2 9 3 -3 4 12
16 34 26 22 10 45 24 51 31 6 7 19 11 30 9 11 -2 17 0 14 6 -4 5 2 12 12 16
10 3 26 13 36 21 9 8 17 11 17 6 0 -5 4 -4 8 1 14 20 63 46 74 39 6 -4 8 -3 4
4 -3 6 3 13 14 17 11 3 20 10 20 16 0 5 16 15 35 24 20 8 43 21 52 30 8 9 22
14 29 11 7 -3 16 0 20 6 5 7 2 8 -6 3 -9 -6 -11 -4 -6 4 5 7 15 10 24 6 9 -3
13 -3 9 1 -8 8 11 34 25 34 5 0 6 -6 2 -12 -4 -8 -3 -10 2 -5 5 5 9 13 9 18 0
5 2 8 5 7 3 -1 20 13 39 30 19 17 37 29 39 27 3 -3 16 7 29 21 13 14 30 23 38
20 9 -3 12 0 9 9 -3 8 4 19 18 26 12 7 28 17 34 23 6 6 32 27 58 46 26 19 66
53 90 75 23 22 64 58 90 80 26 22 71 62 100 89 112 108 148 140 141 127 -5
-10 -4 -12 4 -7 6 4 9 11 6 15 -5 10 116 137 127 133 5 -1 7 2 5 6 -4 15 53
73 64 66 8 -4 9 -3 5 5 -5 7 3 22 19 37 14 13 23 24 19 24 -3 0 8 14 25 32 17
17 31 35 31 40 0 4 7 8 16 8 8 0 13 4 10 9 -3 5 6 21 20 36 13 15 32 38 40 51
9 13 21 21 27 17 6 -4 7 -1 3 6 -9 13 22 54 34 46 4 -3 7 3 6 13 0 10 6 17 15
16 10 -1 15 5 12 15 -2 9 21 50 52 90 55 75 76 99 60 72 -5 -10 -4 -12 4 -7 6
4 9 11 6 16 -8 14 25 61 38 53 5 -3 7 -1 3 5 -7 12 61 132 76 132 5 0 6 5 3
10 -3 6 -1 10 4 10 6 0 10 3 9 8 -1 4 15 38 36 75 33 59 40 66 55 55 14 -11
14 -11 3 3 -14 18 -6 52 11 42 6 -3 7 -1 3 5 -8 13 42 112 56 112 5 0 7 4 3 9
-8 13 30 73 40 63 5 -4 5 -2 1 5 -8 14 27 97 36 88 3 -4 5 0 4 7 -2 21 56 148
65 142 5 -3 6 2 3 11 -4 8 5 40 20 70 14 30 28 66 32 80 3 14 11 22 17 18 6
-3 7 -1 3 6 -4 6 -4 21 -1 32 5 14 10 18 14 10 4 -7 8 2 8 19 0 16 5 40 11 53
6 12 18 46 27 75 11 34 21 50 28 46 9 -5 9 -3 0 6 -9 10 -9 19 2 40 8 15 11
31 7 35 -4 5 2 5 13 1 16 -6 18 -5 8 5 -14 14 -18 33 -5 26 4 -3 7 5 8 16 2
44 38 162 53 175 9 8 10 11 4 7 -8 -4 -13 0 -13 9 0 9 4 16 8 16 4 0 9 15 10
32 2 18 9 58 17 88 18 68 23 98 24 128 1 13 5 21 10 18 4 -3 6 10 4 29 -2 19
0 35 4 35 5 0 8 12 9 28 2 62 15 137 27 151 7 9 7 12 1 8 -7 -4 -10 3 -8 21 2
15 7 52 10 82 4 30 12 58 18 62 8 5 7 8 -2 8 -7 0 -10 5 -6 12 4 6 7 30 7 52
0 23 5 47 11 55 6 8 7 12 1 9 -14 -9 -6 95 9 104 7 5 8 8 0 8 -12 0 -12 69 0
88 3 6 1 14 -5 18 -8 4 -7 9 2 15 11 7 11 9 1 9 -7 0 -10 5 -7 11 4 6 7 615 7
1355 0 1011 3 1342 11 1337 9 -5 9 -3 1 8 -8 9 -11 106 -11 307 0 161 -3 295
-6 298 -3 3 -72 -28 -154 -68 -147 -73 -191 -93 -353 -161 -209 -88 -617 -218
-760 -242 -19 -3 -48 -10 -65 -15 -16 -5 -43 -11 -60 -14 -296 -51 -372 -63
-385 -64 -22 0 -121 -12 -146 -17 -12 -3 -72 -8 -135 -12 -147 -10 -41558 -10
-41704 -1 -60 5 -121 10 -135 12 -14 3 -52 7 -85 10 -77 8 -133 15 -165 21
-14 3 -43 7 -65 11 -157 22 -474 93 -629 140 -343 105 -565 194 -871 349 -437
222 -814 484 -1164 810 -149 138 -341 340 -456 480 -27 33 -52 62 -55 65 -23
21 -205 272 -283 390 -132 200 -212 341 -327 575 -116 236 -181 396 -261 637
-76 231 -162 572 -184 728 -2 14 -8 54 -14 90 -17 108 -20 134 -26 196 -4 32
-8 75 -10 94 -3 19 -8 78 -12 130 -10 124 -10 41562 0 41704 4 60 9 123 12
140 2 17 7 54 10 81 6 47 28 208 40 285 3 19 10 58 16 85 6 28 13 61 15 75 34
177 105 433 174 635 77 223 248 614 307 705 31 47 29 60 -9 60 -181 3 -3328 0
-3343 -3 -11 -2 -23 0 -26 5 -3 4 -9 5 -12 1z"/>
<path d="M19390 71519 c0 -5 5 -7 10 -4 6 3 10 8 10 11 0 2 -4 4 -10 4 -5 0
-10 -5 -10 -11z"/>
<path d="M19507 71519 c7 -7 15 -10 18 -7 3 3 -2 9 -12 12 -14 6 -15 5 -6 -5z"/>
<path d="M19055 71460 c-3 -5 -1 -10 4 -10 6 0 11 5 11 10 0 6 -2 10 -4 10 -3
0 -8 -4 -11 -10z"/>
<path d="M19175 71460 c-3 -5 -1 -10 4 -10 6 0 11 5 11 10 0 6 -2 10 -4 10 -3
0 -8 -4 -11 -10z"/>
<path d="M19290 71460 c0 -5 5 -10 11 -10 5 0 7 5 4 10 -3 6 -8 10 -11 10 -2
0 -4 -4 -4 -10z"/>
<path d="M18876 71362 c-3 -5 1 -9 9 -9 8 0 12 4 9 9 -3 4 -7 8 -9 8 -2 0 -6
-4 -9 -8z"/>
<path d="M18655 71260 c-3 -5 -1 -10 4 -10 6 0 11 5 11 10 0 6 -2 10 -4 10 -3
0 -8 -4 -11 -10z"/>
<path d="M18546 71242 c-2 -4 4 -8 14 -8 10 0 16 4 14 8 -3 4 -9 8 -14 8 -5 0
-11 -4 -14 -8z"/>
<path d="M18410 71160 c0 -5 5 -10 11 -10 5 0 7 5 4 10 -3 6 -8 10 -11 10 -2
0 -4 -4 -4 -10z"/>
<path d="M18194 71129 c-3 -6 -2 -15 3 -20 5 -5 9 -1 9 11 0 23 -2 24 -12 9z"/>
<path d="M18226 71122 c-3 -5 1 -9 9 -9 8 0 12 4 9 9 -3 4 -7 8 -9 8 -2 0 -6
-4 -9 -8z"/>
<path d="M18266 71118 c3 -5 10 -6 15 -3 13 9 11 12 -6 12 -8 0 -12 -4 -9 -9z"/>
<path d="M18306 71122 c-3 -5 1 -9 9 -9 8 0 12 4 9 9 -3 4 -7 8 -9 8 -2 0 -6
-4 -9 -8z"/>
<path d="M17985 70999 c-3 -4 2 -6 10 -5 21 3 28 13 10 13 -9 0 -18 -4 -20 -8z"/>
<path d="M18095 70989 c-4 -6 -5 -12 -2 -15 2 -3 7 2 10 11 7 17 1 20 -8 4z"/>
<path d="M17990 70976 c0 -2 8 -10 18 -17 15 -13 16 -12 3 4 -13 16 -21 21
-21 13z"/>
<path d="M17830 70926 c0 -2 7 -7 16 -10 8 -3 12 -2 9 4 -6 10 -25 14 -25 6z"/>
<path d="M17935 70900 c3 -5 8 -10 11 -10 2 0 4 5 4 10 0 6 -5 10 -11 10 -5 0
-7 -4 -4 -10z"/>
<path d="M17775 70820 c-3 -5 -1 -10 4 -10 6 0 11 5 11 10 0 6 -2 10 -4 10 -3
0 -8 -4 -11 -10z"/>
<path d="M17575 70760 c3 -5 8 -10 11 -10 2 0 4 5 4 10 0 6 -5 10 -11 10 -5 0
-7 -4 -4 -10z"/>
<path d="M17470 70686 c0 -2 7 -7 16 -10 8 -3 12 -2 9 4 -6 10 -25 14 -25 6z"/>
<path d="M17545 70680 c-3 -6 1 -7 9 -4 18 7 21 14 7 14 -6 0 -13 -4 -16 -10z"/>
<path d="M17416 70647 c3 -10 9 -15 12 -12 3 3 0 11 -7 18 -10 9 -11 8 -5 -6z"/>
<path d="M17136 70418 c3 -5 10 -6 15 -3 13 9 11 12 -6 12 -8 0 -12 -4 -9 -9z"/>
<path d="M17225 70380 c-3 -6 1 -7 9 -4 18 7 21 14 7 14 -6 0 -13 -4 -16 -10z"/>
<path d="M17149 70323 c-13 -16 -12 -17 4 -4 9 7 17 15 17 17 0 8 -8 3 -21
-13z"/>
<path d="M16910 70219 c0 -5 5 -7 10 -4 6 3 10 8 10 11 0 2 -4 4 -10 4 -5 0
-10 -5 -10 -11z"/>
<path d="M16970 70220 c0 -5 5 -10 11 -10 5 0 7 5 4 10 -3 6 -8 10 -11 10 -2
0 -4 -4 -4 -10z"/>
<path d="M16810 70000 c0 -5 5 -10 11 -10 5 0 7 5 4 10 -3 6 -8 10 -11 10 -2
0 -4 -4 -4 -10z"/>
<path d="M16690 69980 c0 -5 5 -10 11 -10 5 0 7 5 4 10 -3 6 -8 10 -11 10 -2
0 -4 -4 -4 -10z"/>
<path d="M16599 69858 c-5 -18 -6 -38 -1 -34 7 8 12 36 6 36 -2 0 -4 -1 -5 -2z"/>
<path d="M16626 69838 c3 -5 10 -6 15 -3 13 9 11 12 -6 12 -8 0 -12 -4 -9 -9z"/>
<path d="M16540 69725 c0 -2 6 -8 13 -14 10 -8 14 -7 14 2 0 8 -6 14 -14 14
-7 0 -13 -1 -13 -2z"/>
<path d="M16410 69639 c0 -5 5 -7 10 -4 6 3 10 8 10 11 0 2 -4 4 -10 4 -5 0
-10 -5 -10 -11z"/>
<path d="M16310 69482 c0 -5 7 -9 15 -9 8 0 12 4 9 9 -3 4 -9 8 -15 8 -5 0 -9
-4 -9 -8z"/>
<path d="M16309 69443 c-13 -16 -12 -17 4 -4 9 7 17 15 17 17 0 8 -8 3 -21
-13z"/>
<path d="M16290 69379 c0 -5 5 -7 10 -4 6 3 10 8 10 11 0 2 -4 4 -10 4 -5 0
-10 -5 -10 -11z"/>
<path d="M16035 69080 c-3 -5 -1 -10 4 -10 6 0 11 5 11 10 0 6 -2 10 -4 10 -3
0 -8 -4 -11 -10z"/>
<path d="M16030 69039 c0 -5 5 -7 10 -4 6 3 10 8 10 11 0 2 -4 4 -10 4 -5 0
-10 -5 -10 -11z"/>
<path d="M15956 68918 c3 -5 10 -6 15 -3 13 9 11 12 -6 12 -8 0 -12 -4 -9 -9z"/>
<path d="M15953 68875 c0 -8 4 -12 9 -9 4 3 8 9 8 15 0 5 -4 9 -8 9 -5 0 -9
-7 -9 -15z"/>
<path d="M15990 68878 c0 -4 4 -8 9 -8 6 0 12 4 15 8 3 5 -1 9 -9 9 -8 0 -15
-4 -15 -9z"/>
<path d="M15850 68719 c0 -5 5 -7 10 -4 6 3 10 8 10 11 0 2 -4 4 -10 4 -5 0
-10 -5 -10 -11z"/>
<path d="M15850 68659 c0 -5 5 -7 10 -4 6 3 10 8 10 11 0 2 -4 4 -10 4 -5 0
-10 -5 -10 -11z"/>
<path d="M15869 68563 c-13 -16 -12 -17 4 -4 9 7 17 15 17 17 0 8 -8 3 -21
-13z"/>
<path d="M15810 68540 c0 -5 5 -10 11 -10 5 0 7 5 4 10 -3 6 -8 10 -11 10 -2
0 -4 -4 -4 -10z"/>
<path d="M15810 68459 c0 -5 5 -7 10 -4 6 3 10 8 10 11 0 2 -4 4 -10 4 -5 0
-10 -5 -10 -11z"/>
<path d="M15750 68441 c0 -6 4 -13 10 -16 6 -3 7 1 4 9 -7 18 -14 21 -14 7z"/>
<path d="M15709 68323 c-13 -16 -12 -17 4 -4 9 7 17 15 17 17 0 8 -8 3 -21
-13z"/>
<path d="M15675 68200 c-3 -5 -1 -10 4 -10 6 0 11 5 11 10 0 6 -2 10 -4 10 -3
0 -8 -4 -11 -10z"/>
<path d="M15710 68201 c0 -6 4 -13 10 -16 6 -3 7 1 4 9 -7 18 -14 21 -14 7z"/>
<path d="M15630 68161 c0 -6 4 -12 8 -15 5 -3 9 1 9 9 0 8 -4 15 -9 15 -4 0
-8 -4 -8 -9z"/>
<path d="M15665 68160 c-3 -6 1 -7 9 -4 18 7 21 14 7 14 -6 0 -13 -4 -16 -10z"/>
<path d="M15550 67776 c0 -2 8 -10 18 -17 15 -13 16 -12 3 4 -13 16 -21 21
-21 13z"/>
<path d="M15473 67583 c4 -3 1 -13 -6 -22 -11 -14 -10 -14 5 -2 16 12 16 31 1
31 -4 0 -3 -3 0 -7z"/>
<path d="M15500 67526 c0 -2 8 -10 18 -17 15 -13 16 -12 3 4 -13 16 -21 21
-21 13z"/>
<path d="M15510 67478 c0 -4 4 -8 9 -8 6 0 12 4 15 8 3 5 -1 9 -9 9 -8 0 -15
-4 -15 -9z"/>
<path d="M15455 67220 c3 -5 8 -10 11 -10 2 0 4 5 4 10 0 6 -5 10 -11 10 -5 0
-7 -4 -4 -10z"/>
<path d="M15469 67123 c-13 -16 -12 -17 4 -4 9 7 17 15 17 17 0 8 -8 3 -21
-13z"/>
<path d="M15390 67080 c0 -5 5 -10 11 -10 5 0 7 5 4 10 -3 6 -8 10 -11 10 -2
0 -4 -4 -4 -10z"/>
<path d="M15450 66980 c0 -5 5 -10 11 -10 5 0 7 5 4 10 -3 6 -8 10 -11 10 -2
0 -4 -4 -4 -10z"/>
<path d="M15389 66723 c-13 -16 -12 -17 4 -4 9 7 17 15 17 17 0 8 -8 3 -21
-13z"/>
<path d="M15420 66606 c0 -2 8 -10 18 -17 15 -13 16 -12 3 4 -13 16 -21 21
-21 13z"/>
<path d="M9910 66536 c0 -2 8 -10 18 -17 15 -13 16 -12 3 4 -13 16 -21 21 -21
13z"/>
<path d="M9675 66521 c-3 -5 -2 -12 3 -15 5 -3 9 1 9 9 0 17 -3 19 -12 6z"/>
<path d="M9747 66519 c7 -7 15 -10 18 -7 3 3 -2 9 -12 12 -14 6 -15 5 -6 -5z"/>
<path d="M10076 66522 c-3 -5 1 -9 9 -9 8 0 12 4 9 9 -3 4 -7 8 -9 8 -2 0 -6
-4 -9 -8z"/>
<path d="M10113 66515 c0 -8 4 -12 9 -9 5 3 6 10 3 15 -9 13 -12 11 -12 -6z"/>
<path d="M10175 66500 c-3 -5 -1 -10 4 -10 6 0 11 5 11 10 0 6 -2 10 -4 10 -3
0 -8 -4 -11 -10z"/>
<path d="M10034 66480 c0 -13 4 -16 10 -10 7 7 7 13 0 20 -6 6 -10 3 -10 -10z"/>
<path d="M9676 66478 c3 -5 10 -6 15 -3 13 9 11 12 -6 12 -8 0 -12 -4 -9 -9z"/>
<path d="M9716 66482 c-3 -5 1 -9 9 -9 8 0 12 4 9 9 -3 4 -7 8 -9 8 -2 0 -6
-4 -9 -8z"/>
<path d="M9430 66456 c0 -2 8 -10 18 -17 15 -13 16 -12 3 4 -13 16 -21 21 -21
13z"/>
<path d="M9290 66439 c0 -5 5 -7 10 -4 6 3 10 8 10 11 0 2 -4 4 -10 4 -5 0
-10 -5 -10 -11z"/>
<path d="M9819 66437 c12 -16 11 -17 -20 -16 -36 1 -138 -8 -179 -16 -14 -3
-47 -7 -75 -11 -95 -10 -94 -10 -272 -45 -57 -11 -107 -17 -113 -14 -5 3 -10
2 -10 -3 0 -5 -30 -16 -67 -23 -81 -16 -82 -16 -88 -19 -3 -1 -9 -4 -15 -5 -5
-1 -11 -3 -12 -5 -2 -1 -11 -3 -20 -5 -9 -2 -33 -8 -53 -15 -20 -6 -43 -9 -51
-6 -9 3 -12 1 -9 -4 3 -6 3 -10 -2 -11 -19 -2 -41 -7 -87 -23 -27 -9 -51 -14
-54 -12 -2 3 -11 -2 -19 -10 -8 -8 -19 -12 -24 -9 -5 4 -9 2 -9 -4 0 -5 -11
-8 -25 -6 -14 1 -25 -2 -25 -6 0 -5 -9 -9 -19 -9 -11 0 -23 -5 -26 -10 -4 -6
-10 -8 -15 -5 -5 3 -11 1 -15 -5 -9 -15 -38 -13 -29 3 4 7 3 9 -2 4 -5 -5 -9
-13 -9 -19 0 -13 -105 -49 -118 -41 -6 4 -7 1 -2 -7 6 -10 3 -12 -13 -8 -12 4
-20 3 -18 -1 3 -4 -10 -13 -27 -20 -53 -23 -138 -62 -206 -93 -51 -24 -66 -27
-73 -16 -8 10 -9 9 -5 -3 6 -18 -37 -44 -54 -33 -5 3 -8 0 -7 -8 2 -7 -5 -12
-15 -11 -10 0 -16 -2 -13 -5 8 -7 -94 -63 -104 -57 -4 3 -11 -2 -14 -11 -3 -8
-10 -12 -16 -9 -5 3 -10 2 -10 -2 0 -5 -21 -20 -47 -33 -26 -14 -54 -31 -61
-38 -17 -16 -84 -50 -94 -48 -4 0 -13 -8 -21 -18 -8 -11 -19 -16 -26 -12 -7 4
-10 2 -9 -5 2 -6 -3 -14 -11 -17 -9 -3 -11 0 -6 8 5 9 4 11 -4 6 -6 -4 -9 -11
-6 -16 3 -5 -4 -14 -15 -20 -11 -6 -20 -8 -20 -4 0 4 -12 -6 -27 -21 -15 -15
-41 -34 -58 -42 -16 -9 -32 -19 -35 -22 -3 -3 -36 -30 -75 -58 -38 -29 -79
-60 -90 -70 -11 -10 -37 -30 -57 -46 -21 -15 -52 -41 -69 -57 -18 -16 -37 -26
-42 -23 -6 3 -7 1 -3 -5 4 -7 -3 -17 -18 -24 -14 -6 -26 -18 -26 -25 0 -8 -5
-11 -10 -8 -6 4 -7 11 -4 17 4 7 2 8 -5 4 -6 -4 -9 -12 -5 -17 3 -6 -11 -25
-32 -42 -20 -18 -63 -58 -96 -90 -32 -32 -58 -56 -58 -53 0 2 -13 -7 -28 -22
-15 -15 -27 -30 -25 -33 3 -8 -27 -23 -40 -21 -4 1 -6 -1 -5 -5 5 -18 -24 -54
-38 -49 -9 3 -12 1 -9 -4 7 -11 -83 -106 -96 -103 -5 2 -6 -4 -3 -12 4 -10 -2
-18 -17 -24 -13 -4 -24 -12 -24 -17 0 -5 -4 -8 -10 -6 -5 2 -7 0 -3 -4 7 -6
-21 -45 -86 -121 -10 -12 -23 -20 -27 -17 -4 2 -11 -1 -15 -7 -4 -8 -3 -9 4
-5 21 13 12 -8 -16 -39 -15 -16 -38 -45 -51 -63 -12 -18 -27 -29 -33 -26 -7 4
-8 2 -4 -4 6 -11 -38 -82 -56 -90 -5 -2 -8 -10 -8 -17 0 -8 -8 -19 -17 -24
-10 -6 -14 -11 -10 -11 4 0 3 -6 -2 -12 -39 -48 -61 -79 -86 -121 -24 -41 -29
-46 -44 -35 -14 12 -15 11 -1 -6 13 -16 12 -20 -5 -33 -11 -7 -18 -15 -17 -16
8 -4 -22 -57 -31 -57 -6 0 -8 -3 -4 -6 3 -3 -11 -34 -32 -67 -20 -34 -40 -70
-44 -81 -6 -16 -10 -16 -25 -5 -14 11 -15 11 -4 -1 15 -18 16 -34 0 -24 -7 4
-8 3 -4 -4 8 -13 -32 -92 -46 -92 -4 0 -5 -7 -2 -15 4 -8 -1 -17 -10 -21 -9
-3 -14 -9 -11 -13 6 -12 -42 -101 -50 -93 -5 4 -5 2 -1 -5 4 -7 -5 -35 -19
-62 -14 -28 -25 -57 -25 -65 0 -7 -7 -17 -16 -20 -8 -3 -12 -10 -9 -16 3 -5 1
-10 -5 -10 -6 0 -9 -4 -6 -9 9 -14 -5 -42 -17 -34 -5 3 -7 1 -4 -4 8 -13 -12
-73 -24 -73 -5 0 -8 -3 -7 -7 1 -5 -4 -29 -11 -55 -9 -31 -19 -48 -30 -49 -9
0 -11 -3 -4 -5 16 -7 -37 -163 -57 -165 -9 0 -10 -2 -3 -5 10 -5 -5 -65 -33
-134 -4 -8 -8 -22 -9 -30 -7 -51 -18 -80 -28 -73 -8 5 -8 2 0 -8 8 -10 9 -19
3 -25 -5 -5 -11 -22 -14 -39 -3 -16 -8 -43 -12 -60 -3 -16 -13 -39 -22 -49
-10 -11 -11 -16 -3 -11 10 5 12 3 8 -11 -11 -38 -39 -174 -37 -180 1 -4 -4
-11 -12 -15 -8 -6 -9 -9 -1 -9 8 0 8 -13 -2 -50 -16 -61 -15 -55 -15 -85 0
-19 -4 -23 -17 -19 -16 5 -16 4 -2 -5 18 -11 15 -55 -5 -80 -9 -12 -8 -13 3
-6 9 5 12 4 8 -2 -6 -10 -11 -44 -22 -168 -8 -87 -9 -91 -25 -111 -14 -17 -14
-18 3 -5 15 12 25 3 11 -11 -3 -4 -7 -60 -9 -125 -2 -65 -4 -118 -5 -118 0 0
-1 -1212 -2 -2692 0 -2021 -3 -2691 -12 -2686 -8 5 -8 3 1 -8 16 -20 16
-30722 -1 -30712 -8 5 -8 3 1 -8 16 -20 16 -15242 -1 -15232 -8 5 -8 3 0 -8 7
-8 11 -47 10 -92 0 -44 3 -81 8 -84 4 -3 2 -9 -5 -14 -12 -7 -12 -9 0 -9 11 0
11 -3 1 -15 -7 -8 -8 -15 -3 -15 5 0 10 -35 12 -78 5 -119 9 -164 16 -196 5
-27 5 -28 -12 -15 -17 13 -17 13 -1 -6 11 -13 19 -45 22 -87 2 -37 6 -71 9
-75 3 -4 8 -35 11 -68 3 -33 10 -76 16 -95 12 -44 13 -43 -2 -34 -9 5 -9 3 1
-9 7 -9 11 -26 8 -37 -3 -11 -1 -18 4 -14 5 3 10 -7 11 -23 2 -40 3 -47 9 -58
4 -5 6 -22 5 -37 -1 -16 2 -28 6 -28 4 0 8 -7 8 -16 0 -9 -5 -13 -12 -9 -7 4
-5 0 5 -8 9 -8 17 -24 17 -36 0 -12 4 -30 9 -39 4 -9 11 -32 14 -50 5 -24 3
-31 -6 -27 -6 4 -4 0 6 -8 9 -8 17 -23 17 -34 0 -10 5 -24 11 -30 8 -8 8 -13
0 -17 -6 -4 -11 -13 -11 -19 0 -7 4 -6 10 3 9 13 10 13 11 0 1 -8 3 -19 3 -25
1 -5 5 -15 9 -22 4 -6 8 -23 9 -37 1 -14 6 -26 11 -26 5 0 7 -9 4 -20 -3 -11
-1 -20 4 -20 12 0 31 -78 23 -92 -4 -7 -3 -8 4 -4 8 4 12 0 12 -11 0 -11 4
-23 8 -28 15 -19 33 -85 26 -96 -4 -7 -3 -9 3 -6 6 4 18 -14 27 -41 22 -60 35
-90 53 -124 8 -16 12 -28 9 -28 -3 0 3 -16 14 -36 11 -19 18 -39 15 -45 -4 -5
-2 -9 3 -9 13 0 43 -70 36 -82 -4 -6 -2 -8 4 -4 10 6 46 -71 40 -87 -2 -5 5
-13 15 -18 12 -7 16 -17 11 -31 -3 -12 -2 -18 3 -15 6 4 20 -12 32 -33 12 -22
19 -40 14 -40 -4 0 -3 -4 3 -8 6 -4 19 -23 29 -42 9 -19 24 -43 33 -52 8 -10
12 -18 9 -18 -4 0 5 -17 19 -37 13 -20 22 -43 20 -50 -3 -7 0 -15 6 -19 7 -4
8 -3 4 4 -4 7 -5 12 -2 12 3 0 10 -10 17 -21 9 -17 8 -24 -2 -31 -10 -6 -7 -7
9 -3 14 4 22 2 22 -5 0 -7 9 -24 20 -40 11 -15 17 -30 13 -34 -3 -3 -1 -6 6
-6 7 0 9 -4 6 -10 -3 -5 1 -10 9 -10 9 0 16 -8 16 -19 0 -11 3 -21 8 -23 12
-5 62 -76 62 -87 0 -6 5 -11 10 -11 6 0 10 -7 10 -15 0 -8 4 -15 9 -15 5 0 23
-21 40 -47 16 -27 38 -56 47 -65 9 -9 13 -22 8 -29 -4 -7 -3 -10 4 -5 6 3 21
-8 33 -26 13 -18 28 -37 35 -43 26 -23 63 -82 56 -90 -4 -5 -2 -5 5 -1 13 7
80 -70 75 -86 -1 -5 2 -7 7 -4 5 3 20 -9 34 -27 13 -17 52 -60 86 -94 33 -35
61 -65 61 -69 0 -8 63 -64 73 -64 4 0 5 -4 2 -10 -3 -5 -2 -10 4 -10 6 0 47
-35 92 -77 139 -132 151 -143 161 -143 5 0 6 -5 3 -10 -3 -6 -1 -10 5 -10 6 0
22 -11 35 -24 18 -18 21 -26 12 -37 -10 -11 -9 -11 5 0 15 11 24 8 63 -24 24
-21 42 -41 39 -46 -3 -5 1 -7 8 -4 7 3 24 -5 38 -18 14 -12 53 -42 87 -66 35
-24 60 -48 56 -54 -3 -5 -2 -7 4 -4 12 8 79 -41 75 -54 -1 -6 2 -8 7 -5 8 5
95 -44 128 -74 7 -5 14 -10 17 -10 10 0 171 -103 174 -111 2 -5 7 -7 12 -4 5
3 16 -2 24 -11 9 -8 16 -13 16 -10 0 4 18 -5 40 -19 22 -14 44 -25 50 -25 6 0
9 -4 6 -9 -3 -5 0 -8 7 -7 14 1 190 -85 195 -97 2 -4 7 -5 12 -2 5 3 15 -2 24
-10 8 -9 18 -16 21 -15 21 1 25 -1 19 -12 -4 -6 -3 -8 3 -5 12 7 90 -20 113
-39 8 -7 18 -13 23 -13 24 -2 57 -14 57 -22 0 -5 3 -8 7 -7 14 5 92 -25 88
-33 -3 -4 5 -5 17 -1 16 4 19 2 13 -8 -5 -8 -4 -11 3 -6 5 3 48 -8 94 -24 115
-42 112 -41 118 -41 3 0 16 -7 29 -16 13 -8 20 -10 17 -4 -5 8 -1 8 16 2 23
-9 58 -23 68 -26 3 -1 22 -5 43 -9 20 -5 37 -11 37 -15 0 -3 10 -7 23 -7 12
-1 33 -5 47 -9 14 -4 34 -8 45 -10 11 -2 21 -4 23 -5 1 -2 7 -4 12 -5 6 -1 11
-3 13 -4 1 -2 13 -4 27 -6 14 -3 34 -7 45 -9 11 -2 24 -5 28 -5 5 -1 5 -7 1
-13 -5 -9 -2 -9 9 1 9 7 17 10 17 5 0 -5 18 -10 41 -11 22 -1 48 -8 57 -15 9
-7 13 -8 9 -2 -4 7 2 10 18 7 16 -4 22 -10 19 -22 -5 -15 -5 -15 5 1 12 18 55
13 44 -6 -4 -6 1 -5 10 3 9 7 17 10 17 5 0 -5 26 -10 58 -12 31 -1 66 -4 77
-7 11 -2 26 -4 33 -4 8 -1 10 -6 6 -13 -6 -10 -4 -10 7 -2 8 5 23 9 34 8 101
-11 140 -15 205 -20 41 -3 109 -7 150 -9 41 -2 77 -4 80 -5 12 -5 90 -1 100 5
5 3 10 3 10 -2 0 -4 5743 -7 12762 -6 9624 1 12767 -2 12777 -10 11 -9 13 -9
8 -1 -5 9 3210 12 12912 12 7106 0 12924 3 12930 6 6 4 11 2 11 -5 0 -9 3 -9
14 0 10 8 16 9 21 1 3 -6 12 -7 18 -3 18 11 81 10 89 -1 5 -7 8 -7 8 2 0 16
87 16 93 0 3 -8 6 -6 6 5 1 21 30 19 49 -3 10 -13 11 -12 6 3 -6 16 -2 18 22
16 16 -2 35 0 42 4 7 5 12 3 12 -5 0 -10 2 -10 8 -1 4 7 39 14 80 17 39 3 77
8 83 12 8 5 9 3 4 -7 -7 -11 -6 -12 6 -2 9 7 33 15 55 17 21 3 50 7 63 10 12
3 42 7 65 10 23 3 49 7 57 10 7 3 32 8 54 11 22 3 64 12 95 20 30 8 70 15 88
17 17 1 32 6 32 10 0 4 7 8 16 8 9 0 13 -5 9 -12 -4 -7 -1 -6 7 3 13 15 131
51 175 53 11 1 19 4 16 8 -2 5 5 8 15 8 11 0 36 7 55 15 43 18 61 19 51 3 -4
-7 -3 -8 5 -4 6 4 9 11 6 16 -6 10 43 23 57 14 7 -4 8 -3 4 4 -4 7 -2 12 3 12
20 0 26 2 38 12 7 5 28 10 48 11 19 1 30 4 24 8 -16 9 27 22 43 13 7 -4 10 -4
6 1 -8 8 123 67 150 68 6 0 12 4 12 8 0 4 7 10 16 13 10 4 13 2 8 -7 -4 -6 1
-5 12 4 16 14 46 29 64 33 3 1 15 7 28 14 12 7 28 10 35 6 6 -4 9 -3 4 1 -10
11 70 48 85 39 6 -4 8 -3 5 2 -6 10 200 120 220 118 7 -1 10 2 8 7 -3 4 4 13
15 19 11 6 20 7 20 3 0 -4 6 1 13 12 9 11 19 15 27 10 8 -5 11 -4 7 2 -6 9 25
30 47 31 5 0 12 4 15 10 14 20 141 93 152 86 7 -4 9 -3 5 4 -3 5 9 19 26 30
18 12 67 46 108 77 41 30 82 54 91 52 10 -3 16 2 15 12 -1 9 6 15 16 15 10 -1
16 2 13 6 -8 12 33 43 46 34 8 -5 10 -3 4 6 -6 10 -4 12 8 7 11 -4 14 -2 11 8
-7 16 31 39 48 29 7 -5 8 -3 4 5 -9 13 23 43 36 35 5 -3 8 2 8 10 0 9 4 16 8
16 5 0 23 14 40 31 18 17 32 29 32 26 0 -3 28 21 62 53 34 32 66 56 70 54 5
-3 7 -2 6 3 -4 12 123 134 133 128 4 -3 11 0 15 6 5 8 3 9 -7 4 -13 -7 18 28
127 142 27 28 69 75 94 104 25 29 61 70 80 90 19 21 51 59 70 85 19 26 40 52
46 58 6 6 16 22 23 34 7 14 18 21 26 18 9 -3 12 0 9 9 -7 18 33 58 49 48 9 -5
9 -4 0 8 -10 13 -7 21 19 50 17 19 31 36 30 39 -1 3 2 5 7 5 5 0 13 4 18 9 5
5 3 6 -4 2 -7 -4 -13 -3 -13 2 0 15 26 33 35 24 5 -4 5 -1 0 7 -5 9 -2 18 7
25 8 6 15 16 16 21 3 22 55 94 65 88 6 -3 7 -1 3 5 -4 7 -2 20 3 29 6 10 11
14 12 8 0 -5 4 1 8 15 4 14 12 25 18 25 6 0 15 4 20 9 5 5 3 6 -5 2 -6 -4 -12
-4 -12 0 0 10 62 108 75 116 5 4 7 8 3 8 -4 0 2 17 14 38 11 20 32 58 45 84
18 35 28 46 41 42 14 -5 14 -4 3 4 -13 9 -12 15 4 45 12 23 24 33 34 30 13 -4
13 -3 2 5 -16 11 -7 47 9 37 5 -3 7 0 4 8 -5 15 32 97 50 109 6 4 8 8 4 8 -4
0 -2 13 3 30 6 17 16 27 22 23 6 -3 7 -1 3 6 -4 7 1 31 12 54 11 23 25 59 33
80 7 20 16 37 19 37 3 0 6 9 7 20 1 10 8 34 17 52 8 18 17 43 21 56 4 12 10
20 14 18 4 -3 7 5 6 17 -1 12 2 28 8 35 5 6 6 12 2 12 -4 0 -2 7 5 15 7 8 9
15 5 15 -4 0 -2 7 5 15 6 8 13 24 15 37 5 38 23 89 37 106 11 13 11 14 0 8
-11 -6 -11 -4 -3 10 9 16 44 145 65 237 4 18 11 25 19 21 9 -5 9 -4 1 5 -8 9
-7 26 3 64 7 29 16 72 19 97 3 24 7 47 9 50 2 3 6 26 10 50 6 47 15 95 20 120
2 8 4 30 4 48 1 24 5 31 14 26 9 -6 9 -5 0 8 -7 8 -10 18 -6 21 3 4 7 30 9 58
2 29 9 56 16 60 7 5 8 9 2 9 -11 0 -16 30 -5 30 3 0 7 44 9 97 2 62 7 100 15
105 7 4 7 8 2 8 -6 0 -12 11 -13 26 -1 16 2 23 9 18 8 -4 8 -1 1 12 -6 11 -11
21 -13 24 -1 3 3 15 10 27 8 16 8 23 1 23 -6 0 -8 5 -5 11 5 7 10 2977 6 3292
-1 44 -12 46 -61 14 -91 -59 -482 -230 -705 -307 -202 -69 -458 -140 -635
-174 -14 -2 -47 -9 -75 -15 -27 -6 -63 -12 -80 -15 -16 -2 -59 -9 -95 -14
-105 -17 -134 -21 -196 -27 -32 -4 -70 -8 -83 -10 -13 -2 -73 -8 -135 -12
-141 -10 -46673 -11 -46821 -1 -60 5 -121 10 -135 12 -14 3 -52 7 -85 10 -77
8 -133 15 -165 21 -14 3 -43 7 -65 11 -157 22 -474 93 -629 140 -343 105 -565
194 -871 349 -437 222 -814 484 -1164 810 -149 138 -341 340 -456 480 -27 33
-52 62 -55 65 -23 21 -205 272 -283 390 -132 200 -212 341 -327 575 -116 236
-181 396 -261 637 -76 231 -162 572 -184 728 -2 14 -8 54 -14 90 -17 108 -20
134 -26 196 -4 32 -8 75 -10 94 -3 19 -8 78 -12 130 -10 123 -10 46681 0
46820 4 58 9 116 12 130 2 14 6 52 10 85 9 97 13 130 24 192 5 32 13 76 16 98
22 156 109 503 180 720 83 254 157 435 280 683 71 143 78 162 60 163 -145 4
-3326 -1 -3334 -5 -6 -4 -11 -2 -11 4 0 8 -6 8 -20 0 -15 -8 -20 -8 -20 2 0 9
-3 10 -8 2 -4 -6 -16 -11 -27 -11 -11 0 -23 5 -27 11 -5 8 -8 7 -8 -1 0 -9
-17 -13 -53 -13 -29 0 -59 6 -67 13 -12 10 -12 9 -1 -6z"/>
<path d="M9110 66419 c0 -5 5 -7 10 -4 6 3 10 8 10 11 0 2 -4 4 -10 4 -5 0
-10 -5 -10 -11z"/>
<path d="M9069 66403 c-13 -16 -12 -17 4 -4 9 7 17 15 17 17 0 8 -8 3 -21 -13z"/>
<path d="M15389 66403 c-13 -16 -12 -17 4 -4 9 7 17 15 17 17 0 8 -8 3 -21
-13z"/>
<path d="M9315 66380 c3 -5 8 -10 11 -10 2 0 4 5 4 10 0 6 -5 10 -11 10 -5 0
-7 -4 -4 -10z"/>
<path d="M8827 66319 c7 -7 15 -10 18 -7 3 3 -2 9 -12 12 -14 6 -15 5 -6 -5z"/>
<path d="M8709 66283 c-13 -16 -12 -17 4 -4 16 13 21 21 13 21 -2 0 -10 -8
-17 -17z"/>
<path d="M8875 66280 c3 -5 8 -10 11 -10 2 0 4 5 4 10 0 6 -5 10 -11 10 -5 0
-7 -4 -4 -10z"/>
<path d="M8557 66253 c-10 -9 -9 -23 1 -23 5 0 9 7 9 15 0 17 -1 18 -10 8z"/>
<path d="M8516 66233 c-6 -14 -5 -15 5 -6 7 7 10 15 7 18 -3 3 -9 -2 -12 -12z"/>
<path d="M8650 66219 c0 -5 5 -7 10 -4 6 3 10 8 10 11 0 2 -4 4 -10 4 -5 0
-10 -5 -10 -11z"/>
<path d="M8309 66163 c-13 -16 -12 -17 4 -4 9 7 17 15 17 17 0 8 -8 3 -21 -13z"/>
<path d="M8275 66161 c-3 -5 -2 -12 3 -15 5 -3 9 1 9 9 0 17 -3 19 -12 6z"/>
<path d="M8235 66080 c-3 -5 -1 -10 4 -10 6 0 11 5 11 10 0 6 -2 10 -4 10 -3
0 -8 -4 -11 -10z"/>
<path d="M8225 66040 c-3 -6 1 -7 9 -4 18 7 21 14 7 14 -6 0 -13 -4 -16 -10z"/>
<path d="M7930 65939 c0 -5 5 -7 10 -4 6 3 10 8 10 11 0 2 -4 4 -10 4 -5 0
-10 -5 -10 -11z"/>
<path d="M7830 65876 c0 -2 8 -10 18 -17 15 -13 16 -12 3 4 -13 16 -21 21 -21
13z"/>
<path d="M7690 65859 c0 -5 5 -7 10 -4 6 3 10 8 10 11 0 2 -4 4 -10 4 -5 0
-10 -5 -10 -11z"/>
<path d="M7633 65765 c0 -8 4 -12 9 -9 5 3 6 10 3 15 -9 13 -12 11 -12 -6z"/>
<path d="M7669 65763 c-13 -16 -12 -17 4 -4 16 13 21 21 13 21 -2 0 -10 -8
-17 -17z"/>
<path d="M7629 65723 c-13 -16 -12 -17 4 -4 9 7 17 15 17 17 0 8 -8 3 -21 -13z"/>
<path d="M7476 65718 c3 -5 10 -6 15 -3 13 9 11 12 -6 12 -8 0 -12 -4 -9 -9z"/>
<path d="M7509 65683 c-13 -16 -12 -17 4 -4 9 7 17 15 17 17 0 8 -8 3 -21 -13z"/>
<path d="M7350 65646 c0 -2 7 -7 16 -10 8 -3 12 -2 9 4 -6 10 -25 14 -25 6z"/>
<path d="M7315 65569 c-4 -6 -5 -12 -2 -15 2 -3 7 2 10 11 7 17 1 20 -8 4z"/>
<path d="M7180 65486 c0 -2 8 -10 18 -17 15 -13 16 -12 3 4 -13 16 -21 21 -21
13z"/>
<path d="M7119 65433 c-13 -16 -12 -17 4 -4 9 7 17 15 17 17 0 8 -8 3 -21 -13z"/>
<path d="M7104 65402 c4 -3 14 -7 22 -8 9 -1 13 0 10 4 -4 3 -14 7 -22 8 -9 1
-13 0 -10 -4z"/>
<path d="M6833 65235 c0 -8 4 -12 9 -9 5 3 6 10 3 15 -9 13 -12 11 -12 -6z"/>
<path d="M6676 65078 c3 -5 10 -6 15 -3 13 9 11 12 -6 12 -8 0 -12 -4 -9 -9z"/>
<path d="M6670 65056 c0 -2 8 -10 18 -17 15 -13 16 -12 3 4 -13 16 -21 21 -21
13z"/>
<path d="M6615 65020 c3 -5 8 -10 11 -10 2 0 4 5 4 10 0 6 -5 10 -11 10 -5 0
-7 -4 -4 -10z"/>
<path d="M6650 64979 c0 -5 5 -7 10 -4 6 3 10 8 10 11 0 2 -4 4 -10 4 -5 0
-10 -5 -10 -11z"/>
<path d="M6555 64971 c-3 -5 -2 -12 3 -15 5 -3 9 1 9 9 0 17 -3 19 -12 6z"/>
<path d="M6375 64780 c3 -5 8 -10 11 -10 2 0 4 5 4 10 0 6 -5 10 -11 10 -5 0
-7 -4 -4 -10z"/>
<path d="M6375 64660 c3 -5 8 -10 11 -10 2 0 4 5 4 10 0 6 -5 10 -11 10 -5 0
-7 -4 -4 -10z"/>
<path d="M6186 64562 c-3 -5 1 -9 9 -9 8 0 15 4 15 9 0 4 -4 8 -9 8 -6 0 -12
-4 -15 -8z"/>
<path d="M6234 64526 c1 -8 5 -18 8 -22 4 -3 5 1 4 10 -1 8 -5 18 -8 22 -4 3
-5 -1 -4 -10z"/>
<path d="M6199 64513 c-13 -16 -12 -17 4 -4 16 13 21 21 13 21 -2 0 -10 -8
-17 -17z"/>
<path d="M6233 64475 c0 -8 4 -12 9 -9 5 3 6 10 3 15 -9 13 -12 11 -12 -6z"/>
<path d="M5959 64193 c-13 -16 -12 -17 4 -4 16 13 21 21 13 21 -2 0 -10 -8
-17 -17z"/>
<path d="M5995 64201 c-3 -5 -2 -12 3 -15 5 -3 9 1 9 9 0 17 -3 19 -12 6z"/>
<path d="M6026 64202 c-3 -5 1 -9 9 -9 8 0 12 4 9 9 -3 4 -7 8 -9 8 -2 0 -6
-4 -9 -8z"/>
<path d="M5855 64060 c-3 -5 -1 -10 4 -10 6 0 11 5 11 10 0 6 -2 10 -4 10 -3
0 -8 -4 -11 -10z"/>
<path d="M5855 64020 c3 -5 8 -10 11 -10 2 0 4 5 4 10 0 6 -5 10 -11 10 -5 0
-7 -4 -4 -10z"/>
<path d="M5830 63956 c7 -7 13 -7 20 0 6 6 3 10 -10 10 -13 0 -16 -4 -10 -10z"/>
<path d="M5835 63901 c-3 -5 -2 -12 3 -15 5 -3 9 1 9 9 0 17 -3 19 -12 6z"/>
<path d="M5750 63859 c0 -5 5 -7 10 -4 6 3 10 8 10 11 0 2 -4 4 -10 4 -5 0
-10 -5 -10 -11z"/>
<path d="M5735 63700 c3 -5 8 -10 11 -10 2 0 4 5 4 10 0 6 -5 10 -11 10 -5 0
-7 -4 -4 -10z"/>
<path d="M5635 63680 c-3 -5 -1 -10 4 -10 6 0 11 5 11 10 0 6 -2 10 -4 10 -3
0 -8 -4 -11 -10z"/>
<path d="M5549 63323 c-13 -16 -12 -17 4 -4 16 13 21 21 13 21 -2 0 -10 -8
-17 -17z"/>
<path d="M5514 63240 c0 -13 4 -16 10 -10 7 7 7 13 0 20 -6 6 -10 3 -10 -10z"/>
<path d="M5426 63162 c-3 -5 1 -9 9 -9 8 0 12 4 9 9 -3 4 -7 8 -9 8 -2 0 -6
-4 -9 -8z"/>
<path d="M5466 63122 c-3 -5 1 -9 9 -9 8 0 12 4 9 9 -3 4 -7 8 -9 8 -2 0 -6
-4 -9 -8z"/>
<path d="M5359 62753 c-13 -16 -12 -17 4 -4 16 13 21 21 13 21 -2 0 -10 -8
-17 -17z"/>
<path d="M5349 62643 c-13 -16 -12 -17 4 -4 9 7 17 15 17 17 0 8 -8 3 -21 -13z"/>
<path d="M5315 62489 c-4 -6 -5 -12 -2 -15 2 -3 7 2 10 11 7 17 1 20 -8 4z"/>
<path d="M5274 62300 c0 -13 4 -16 10 -10 7 7 7 13 0 20 -6 6 -10 3 -10 -10z"/>
<path d="M5190 62006 c0 -2 7 -7 16 -10 8 -3 12 -2 9 4 -6 10 -25 14 -25 6z"/>
<path d="M5233 61995 c0 -8 4 -12 9 -9 4 3 8 9 8 15 0 5 -4 9 -8 9 -5 0 -9 -7
-9 -15z"/>
<path d="M5170 61940 c0 -5 5 -10 11 -10 5 0 7 5 4 10 -3 6 -8 10 -11 10 -2 0
-4 -4 -4 -10z"/>
<path d="M5185 61720 c-3 -6 1 -7 9 -4 18 7 21 14 7 14 -6 0 -13 -4 -16 -10z"/>
<path d="M5135 61699 c-3 -4 2 -6 10 -5 21 3 28 13 10 13 -9 0 -18 -4 -20 -8z"/>
<path d="M5136 61662 c-3 -5 1 -9 9 -9 8 0 12 4 9 9 -3 4 -7 8 -9 8 -2 0 -6
-4 -9 -8z"/>
<path d="M5180 61566 c0 -2 8 -10 18 -17 15 -13 16 -12 3 4 -13 16 -21 21 -21
13z"/>
<path d="M5149 61283 c-13 -16 -12 -17 4 -4 9 7 17 15 17 17 0 8 -8 3 -21 -13z"/>
<path d="M25629 61283 c-13 -16 -12 -17 4 -4 16 13 21 21 13 21 -2 0 -10 -8
-17 -17z"/>
<path d="M5180 56286 c0 -2 8 -10 18 -17 15 -13 16 -12 3 4 -13 16 -21 21 -21
13z"/>
<path d="M25660 56286 c0 -2 8 -10 18 -17 15 -13 16 -12 3 4 -13 16 -21 21
-21 13z"/>
<path d="M76690 30660 c0 -5 5 -10 11 -10 5 0 7 5 4 10 -3 6 -8 10 -11 10 -2
0 -4 -4 -4 -10z"/>
<path d="M76770 30659 c0 -5 5 -7 10 -4 6 3 10 8 10 11 0 2 -4 4 -10 4 -5 0
-10 -5 -10 -11z"/>
<path d="M25639 30633 c-13 -16 -12 -17 4 -4 16 13 21 21 13 21 -2 0 -10 -8
-17 -17z"/>
<path d="M5149 30563 c-13 -16 -12 -17 4 -4 9 7 17 15 17 17 0 8 -8 3 -21 -13z"/>
<path d="M25615 30540 c-3 -5 -1 -10 4 -10 6 0 11 5 11 10 0 6 -2 10 -4 10 -3
0 -8 -4 -11 -10z"/>
<path d="M76706 30522 c-2 -4 4 -8 14 -8 10 0 16 4 14 8 -3 4 -9 8 -14 8 -5 0
-11 -4 -14 -8z"/>
<path d="M25630 30376 c0 -2 8 -10 18 -17 15 -13 16 -12 3 4 -13 16 -21 21
-21 13z"/>
<path d="M25639 30313 c-13 -16 -12 -17 4 -4 16 13 21 21 13 21 -2 0 -10 -8
-17 -17z"/>
<path d="M76690 30259 c0 -5 5 -7 10 -4 6 3 10 8 10 11 0 2 -4 4 -10 4 -5 0
-10 -5 -10 -11z"/>
<path d="M76695 30180 c-3 -5 -1 -10 4 -10 6 0 11 5 11 10 0 6 -2 10 -4 10 -3
0 -8 -4 -11 -10z"/>
<path d="M76710 30080 c0 -5 5 -10 11 -10 5 0 7 5 4 10 -3 6 -8 10 -11 10 -2
0 -4 -4 -4 -10z"/>
<path d="M76705 30040 c-3 -6 1 -7 9 -4 18 7 21 14 7 14 -6 0 -13 -4 -16 -10z"/>
<path d="M25675 30001 c-3 -5 -2 -12 3 -15 5 -3 9 1 9 9 0 17 -3 19 -12 6z"/>
<path d="M25690 29819 c0 -5 5 -7 10 -4 6 3 10 8 10 11 0 2 -4 4 -10 4 -5 0
-10 -5 -10 -11z"/>
<path d="M76610 29799 c0 -5 5 -7 10 -4 6 3 10 8 10 11 0 2 -4 4 -10 4 -5 0
-10 -5 -10 -11z"/>
<path d="M25705 29720 c-3 -6 1 -7 9 -4 18 7 21 14 7 14 -6 0 -13 -4 -16 -10z"/>
<path d="M76655 29660 c-3 -5 -1 -10 4 -10 6 0 11 5 11 10 0 6 -2 10 -4 10 -3
0 -8 -4 -11 -10z"/>
<path d="M76655 29600 c-3 -5 -1 -10 4 -10 6 0 11 5 11 10 0 6 -2 10 -4 10 -3
0 -8 -4 -11 -10z"/>
<path d="M25735 29560 c3 -5 8 -10 11 -10 2 0 4 5 4 10 0 6 -5 10 -11 10 -5 0
-7 -4 -4 -10z"/>
<path d="M76639 29553 c-13 -16 -12 -17 4 -4 16 13 21 21 13 21 -2 0 -10 -8
-17 -17z"/>
<path d="M76594 29446 c1 -8 5 -18 8 -22 4 -3 5 1 4 10 -1 8 -5 18 -8 22 -4 3
-5 -1 -4 -10z"/>
<path d="M25795 29320 c3 -5 8 -10 11 -10 2 0 4 5 4 10 0 6 -5 10 -11 10 -5 0
-7 -4 -4 -10z"/>
<path d="M25830 29280 c0 -5 5 -10 11 -10 5 0 7 5 4 10 -3 6 -8 10 -11 10 -2
0 -4 -4 -4 -10z"/>
<path d="M25830 29246 c0 -2 7 -7 16 -10 8 -3 12 -2 9 4 -6 10 -25 14 -25 6z"/>
<path d="M25895 29180 c-3 -5 -1 -10 4 -10 6 0 11 5 11 10 0 6 -2 10 -4 10 -3
0 -8 -4 -11 -10z"/>
<path d="M25855 29160 c-3 -5 -1 -10 4 -10 6 0 11 5 11 10 0 6 -2 10 -4 10 -3
0 -8 -4 -11 -10z"/>
<path d="M76470 29038 c0 -4 4 -8 9 -8 6 0 12 4 15 8 3 5 -1 9 -9 9 -8 0 -15
-4 -15 -9z"/>
<path d="M76465 29000 c-3 -6 1 -7 9 -4 18 7 21 14 7 14 -6 0 -13 -4 -16 -10z"/>
<path d="M25954 28966 c1 -8 5 -18 8 -22 4 -3 5 1 4 10 -1 8 -5 18 -8 22 -4 3
-5 -1 -4 -10z"/>
<path d="M25989 28963 c-13 -16 -12 -17 4 -4 16 13 21 21 13 21 -2 0 -10 -8
-17 -17z"/>
<path d="M76390 28936 c0 -2 8 -10 18 -17 15 -13 16 -12 3 4 -13 16 -21 21
-21 13z"/>
<path d="M26020 28806 c0 -2 8 -10 18 -17 15 -13 16 -12 3 4 -13 16 -21 21
-21 13z"/>
<path d="M26090 28740 c0 -5 5 -10 11 -10 5 0 7 5 4 10 -3 6 -8 10 -11 10 -2
0 -4 -4 -4 -10z"/>
<path d="M26034 28729 c-3 -6 -2 -15 3 -20 5 -5 9 -1 9 11 0 23 -2 24 -12 9z"/>
<path d="M76280 28680 c-9 -6 -10 -10 -3 -10 6 0 15 5 18 10 8 12 4 12 -15 0z"/>
<path d="M76270 28646 c0 -2 7 -7 16 -10 8 -3 12 -2 9 4 -6 10 -25 14 -25 6z"/>
<path d="M76279 28553 c-13 -16 -12 -17 4 -4 16 13 21 21 13 21 -2 0 -10 -8
-17 -17z"/>
<path d="M26159 28513 c-13 -16 -12 -17 4 -4 9 7 17 15 17 17 0 8 -8 3 -21
-13z"/>
<path d="M26146 28478 c3 -5 10 -6 15 -3 13 9 11 12 -6 12 -8 0 -12 -4 -9 -9z"/>
<path d="M26154 28449 c-3 -6 -2 -15 3 -20 5 -5 9 -1 9 11 0 23 -2 24 -12 9z"/>
<path d="M26215 28420 c3 -5 8 -10 11 -10 2 0 4 5 4 10 0 6 -5 10 -11 10 -5 0
-7 -4 -4 -10z"/>
<path d="M26300 28286 c0 -2 8 -10 18 -17 15 -13 16 -12 3 4 -13 16 -21 21
-21 13z"/>
<path d="M26275 28241 c-3 -5 -2 -12 3 -15 5 -3 9 1 9 9 0 17 -3 19 -12 6z"/>
<path d="M26276 28198 c3 -5 10 -6 15 -3 13 9 11 12 -6 12 -8 0 -12 -4 -9 -9z"/>
<path d="M26310 28160 c0 -5 5 -10 11 -10 5 0 7 5 4 10 -3 6 -8 10 -11 10 -2
0 -4 -4 -4 -10z"/>
<path d="M75995 28120 c3 -5 8 -10 11 -10 2 0 4 5 4 10 0 6 -5 10 -11 10 -5 0
-7 -4 -4 -10z"/>
<path d="M26375 28060 c3 -5 8 -10 11 -10 2 0 4 5 4 10 0 6 -5 10 -11 10 -5 0
-7 -4 -4 -10z"/>
<path d="M75970 27979 c0 -5 5 -7 10 -4 6 3 10 8 10 11 0 2 -4 4 -10 4 -5 0
-10 -5 -10 -11z"/>
<path d="M75895 27900 c3 -5 8 -10 11 -10 2 0 4 5 4 10 0 6 -5 10 -11 10 -5 0
-7 -4 -4 -10z"/>
<path d="M26559 27833 c-13 -16 -12 -17 4 -4 16 13 21 21 13 21 -2 0 -10 -8
-17 -17z"/>
<path d="M75775 27780 c-3 -5 -1 -10 4 -10 6 0 11 5 11 10 0 6 -2 10 -4 10 -3
0 -8 -4 -11 -10z"/>
<path d="M26575 27740 c3 -5 8 -10 11 -10 2 0 4 5 4 10 0 6 -5 10 -11 10 -5 0
-7 -4 -4 -10z"/>
<path d="M26650 27659 c0 -5 5 -7 10 -4 6 3 10 8 10 11 0 2 -4 4 -10 4 -5 0
-10 -5 -10 -11z"/>
<path d="M75620 27606 c0 -2 8 -10 18 -17 15 -13 16 -12 3 4 -13 16 -21 21
-21 13z"/>
<path d="M75633 27515 c0 -8 4 -12 9 -9 5 3 6 10 3 15 -9 13 -12 11 -12 -6z"/>
<path d="M26745 27500 c-3 -6 1 -7 9 -4 18 7 21 14 7 14 -6 0 -13 -4 -16 -10z"/>
<path d="M26936 27422 c-2 -4 -1 -14 4 -22 7 -11 9 -9 7 8 -1 24 -3 26 -11 14z"/>
<path d="M75535 27420 c3 -5 8 -10 11 -10 2 0 4 5 4 10 0 6 -5 10 -11 10 -5 0
-7 -4 -4 -10z"/>
<path d="M26950 27322 c0 -5 7 -9 15 -9 8 0 12 4 9 9 -3 4 -9 8 -15 8 -5 0 -9
-4 -9 -8z"/>
<path d="M75466 27322 c-3 -5 1 -9 9 -9 8 0 12 4 9 9 -3 4 -7 8 -9 8 -2 0 -6
-4 -9 -8z"/>
<path d="M75370 27299 c0 -5 5 -7 10 -4 6 3 10 8 10 11 0 2 -4 4 -10 4 -5 0
-10 -5 -10 -11z"/>
<path d="M26949 27283 c-13 -16 -12 -17 4 -4 16 13 21 21 13 21 -2 0 -10 -8
-17 -17z"/>
<path d="M27015 27260 c3 -5 8 -10 11 -10 2 0 4 5 4 10 0 6 -5 10 -11 10 -5 0
-7 -4 -4 -10z"/>
<path d="M27050 27260 c0 -5 5 -10 11 -10 5 0 7 5 4 10 -3 6 -8 10 -11 10 -2
0 -4 -4 -4 -10z"/>
<path d="M26975 27240 c-3 -5 -1 -10 4 -10 6 0 11 5 11 10 0 6 -2 10 -4 10 -3
0 -8 -4 -11 -10z"/>
<path d="M75330 27220 c0 -5 5 -10 11 -10 5 0 7 5 4 10 -3 6 -8 10 -11 10 -2
0 -4 -4 -4 -10z"/>
<path d="M75355 27180 c-3 -5 -1 -10 4 -10 6 0 11 5 11 10 0 6 -2 10 -4 10 -3
0 -8 -4 -11 -10z"/>
<path d="M75210 27099 c0 -5 5 -7 10 -4 6 3 10 8 10 11 0 2 -4 4 -10 4 -5 0
-10 -5 -10 -11z"/>
<path d="M75119 27073 c-13 -16 -12 -17 4 -4 16 13 21 21 13 21 -2 0 -10 -8
-17 -17z"/>
<path d="M75255 27080 c-3 -5 -1 -10 4 -10 6 0 11 5 11 10 0 6 -2 10 -4 10 -3
0 -8 -4 -11 -10z"/>
<path d="M27146 27058 c3 -5 10 -6 15 -3 13 9 11 12 -6 12 -8 0 -12 -4 -9 -9z"/>
<path d="M75106 27038 c3 -5 10 -6 15 -3 13 9 11 12 -6 12 -8 0 -12 -4 -9 -9z"/>
<path d="M27255 26980 c-3 -5 -1 -10 4 -10 6 0 11 5 11 10 0 6 -2 10 -4 10 -3
0 -8 -4 -11 -10z"/>
<path d="M75036 26927 c3 -10 9 -15 12 -12 3 3 0 11 -7 18 -10 9 -11 8 -5 -6z"/>
<path d="M74895 26860 c3 -5 8 -10 11 -10 2 0 4 5 4 10 0 6 -5 10 -11 10 -5 0
-7 -4 -4 -10z"/>
<path d="M75015 26860 c3 -5 8 -10 11 -10 2 0 4 5 4 10 0 6 -5 10 -11 10 -5 0
-7 -4 -4 -10z"/>
<path d="M74706 26722 c-3 -5 1 -9 9 -9 8 0 12 4 9 9 -3 4 -7 8 -9 8 -2 0 -6
-4 -9 -8z"/>
<path d="M74744 26722 c4 -3 14 -7 22 -8 9 -1 13 0 10 4 -4 3 -14 7 -22 8 -9
1 -13 0 -10 -4z"/>
<path d="M74755 26689 c-4 -6 -5 -12 -2 -15 2 -3 7 2 10 11 7 17 1 20 -8 4z"/>
<path d="M74794 26680 c0 -13 4 -16 10 -10 7 7 7 13 0 20 -6 6 -10 3 -10 -10z"/>
<path d="M27717 26595 c-4 -8 -3 -16 1 -19 4 -3 9 4 9 15 2 23 -3 25 -10 4z"/>
<path d="M27755 26600 c-3 -5 -1 -10 4 -10 6 0 11 5 11 10 0 6 -2 10 -4 10 -3
0 -8 -4 -11 -10z"/>
<path d="M27790 26601 c0 -6 4 -13 10 -16 6 -3 7 1 4 9 -7 18 -14 21 -14 7z"/>
<path d="M27930 26539 c0 -5 5 -7 10 -4 6 3 10 8 10 11 0 2 -4 4 -10 4 -5 0
-10 -5 -10 -11z"/>
<path d="M74433 26515 c0 -8 4 -12 9 -9 5 3 6 10 3 15 -9 13 -12 11 -12 -6z"/>
<path d="M27875 26489 c-4 -6 -5 -12 -2 -15 2 -3 7 2 10 11 7 17 1 20 -8 4z"/>
<path d="M74426 26478 c3 -5 10 -6 15 -3 13 9 11 12 -6 12 -8 0 -12 -4 -9 -9z"/>
<path d="M28015 26460 c-3 -5 -1 -10 4 -10 6 0 11 5 11 10 0 6 -2 10 -4 10 -3
0 -8 -4 -11 -10z"/>
<path d="M74429 26443 c-13 -16 -12 -17 4 -4 9 7 17 15 17 17 0 8 -8 3 -21
-13z"/>
<path d="M28016 26402 c-3 -5 1 -9 9 -9 8 0 12 4 9 9 -3 4 -7 8 -9 8 -2 0 -6
-4 -9 -8z"/>
<path d="M28079 26353 c-13 -16 -12 -17 4 -4 16 13 21 21 13 21 -2 0 -10 -8
-17 -17z"/>
<path d="M28187 26359 c7 -7 15 -10 18 -7 3 3 -2 9 -12 12 -14 6 -15 5 -6 -5z"/>
<path d="M28275 26329 c-4 -6 -5 -12 -2 -15 2 -3 7 2 10 11 7 17 1 20 -8 4z"/>
<path d="M74194 26329 c-3 -6 -2 -15 3 -20 5 -5 9 -1 9 11 0 23 -2 24 -12 9z"/>
<path d="M74155 26320 c3 -5 8 -10 11 -10 2 0 4 5 4 10 0 6 -5 10 -11 10 -5 0
-7 -4 -4 -10z"/>
<path d="M28375 26260 c3 -5 8 -10 11 -10 2 0 4 5 4 10 0 6 -5 10 -11 10 -5 0
-7 -4 -4 -10z"/>
<path d="M74095 26240 c-3 -5 -1 -10 4 -10 6 0 11 5 11 10 0 6 -2 10 -4 10 -3
0 -8 -4 -11 -10z"/>
<path d="M28290 26219 c0 -5 5 -7 10 -4 6 3 10 8 10 11 0 2 -4 4 -10 4 -5 0
-10 -5 -10 -11z"/>
<path d="M73935 26220 c3 -5 8 -10 11 -10 2 0 4 5 4 10 0 6 -5 10 -11 10 -5 0
-7 -4 -4 -10z"/>
<path d="M73835 26169 c-4 -6 -5 -12 -2 -15 2 -3 7 2 10 11 7 17 1 20 -8 4z"/>
<path d="M73793 26155 c0 -8 4 -12 9 -9 4 3 8 9 8 15 0 5 -4 9 -8 9 -5 0 -9
-7 -9 -15z"/>
<path d="M28535 26120 c-3 -5 -1 -10 4 -10 6 0 11 5 11 10 0 6 -2 10 -4 10 -3
0 -8 -4 -11 -10z"/>
<path d="M73910 26119 c0 -5 5 -7 10 -4 6 3 10 8 10 11 0 2 -4 4 -10 4 -5 0
-10 -5 -10 -11z"/>
<path d="M73559 26033 c-13 -16 -12 -17 4 -4 9 7 17 15 17 17 0 8 -8 3 -21
-13z"/>
<path d="M28930 26019 c0 -5 5 -7 10 -4 6 3 10 8 10 11 0 2 -4 4 -10 4 -5 0
-10 -5 -10 -11z"/>
<path d="M73390 26001 c0 -6 4 -13 10 -16 6 -3 7 1 4 9 -7 18 -14 21 -14 7z"/>
<path d="M73466 26002 c-2 -4 4 -8 14 -8 10 0 16 4 14 8 -3 4 -9 8 -14 8 -5 0
-11 -4 -14 -8z"/>
<path d="M73353 25955 c0 -8 4 -12 9 -9 5 3 6 10 3 15 -9 13 -12 11 -12 -6z"/>
<path d="M73450 25940 c0 -5 5 -10 11 -10 5 0 7 5 4 10 -3 6 -8 10 -11 10 -2
0 -4 -4 -4 -10z"/>
<path d="M29149 25923 c-13 -16 -12 -17 4 -4 16 13 21 21 13 21 -2 0 -10 -8
-17 -17z"/>
<path d="M72879 25833 c-13 -16 -12 -17 4 -4 16 13 21 21 13 21 -2 0 -10 -8
-17 -17z"/>
<path d="M29295 25820 c3 -5 8 -10 11 -10 2 0 4 5 4 10 0 6 -5 10 -11 10 -5 0
-7 -4 -4 -10z"/>
<path d="M73015 25820 c-3 -5 -1 -10 4 -10 6 0 11 5 11 10 0 6 -2 10 -4 10 -3
0 -8 -4 -11 -10z"/>
<path d="M29640 25800 c-9 -6 -10 -10 -3 -10 6 0 15 5 18 10 8 12 4 12 -15 0z"/>
<path d="M29593 25765 c0 -8 4 -12 9 -9 5 3 6 10 3 15 -9 13 -12 11 -12 -6z"/>
<path d="M29870 25776 c0 -2 8 -10 18 -17 15 -13 16 -12 3 4 -13 16 -21 21
-21 13z"/>
<path d="M29559 25753 c-13 -16 -12 -17 4 -4 16 13 21 21 13 21 -2 0 -10 -8
-17 -17z"/>
<path d="M29625 25760 c-3 -6 1 -7 9 -4 18 7 21 14 7 14 -6 0 -13 -4 -16 -10z"/>
<path d="M72536 25758 c3 -5 10 -6 15 -3 13 9 11 12 -6 12 -8 0 -12 -4 -9 -9z"/>
<path d="M72770 25739 c0 -5 5 -7 10 -4 6 3 10 8 10 11 0 2 -4 4 -10 4 -5 0
-10 -5 -10 -11z"/>
<path d="M72225 25719 c-3 -4 2 -6 10 -5 21 3 28 13 10 13 -9 0 -18 -4 -20 -8z"/>
<path d="M30010 25700 c0 -5 5 -10 11 -10 5 0 7 5 4 10 -3 6 -8 10 -11 10 -2
0 -4 -4 -4 -10z"/>
<path d="M30255 25700 c3 -5 8 -10 11 -10 2 0 4 5 4 10 0 6 -5 10 -11 10 -5 0
-7 -4 -4 -10z"/>
<path d="M30509 25683 c-13 -16 -12 -17 4 -4 16 13 21 21 13 21 -2 0 -10 -8
-17 -17z"/>
<path d="M72236 25687 c3 -10 9 -15 12 -12 3 3 0 11 -7 18 -10 9 -11 8 -5 -6z"/>
<path d="M66500 25686 c0 -2 8 -10 18 -17 15 -13 16 -12 3 4 -13 16 -21 21
-21 13z"/>
<path d="M71780 25686 c0 -2 8 -10 18 -17 15 -13 16 -12 3 4 -13 16 -21 21
-21 13z"/>
<path d="M71956 25673 c-6 -14 -5 -15 5 -6 7 7 10 15 7 18 -3 3 -9 -2 -12 -12z"/>
<path d="M29995 25671 c-3 -5 -2 -12 3 -15 5 -3 9 1 9 9 0 17 -3 19 -12 6z"/>
<path d="M30375 25660 c-3 -5 -1 -10 4 -10 6 0 11 5 11 10 0 6 -2 10 -4 10 -3
0 -8 -4 -11 -10z"/>
<path d="M72170 25660 c0 -5 5 -10 11 -10 5 0 7 5 4 10 -3 6 -8 10 -11 10 -2
0 -4 -4 -4 -10z"/>
<path d="M71519 25633 c-13 -16 -12 -17 4 -4 16 13 21 21 13 21 -2 0 -10 -8
-17 -17z"/>
<path d="M71893 25625 c0 -8 4 -12 9 -9 5 3 6 10 3 15 -9 13 -12 11 -12 -6z"/>
<path d="M30490 25625 c0 -7 30 -13 34 -7 3 4 -4 9 -15 9 -10 1 -19 0 -19 -2z"/>
<path d="M30615 25620 c-3 -5 -1 -10 4 -10 6 0 11 5 11 10 0 6 -2 10 -4 10 -3
0 -8 -4 -11 -10z"/>
<path d="M5180 25566 c0 -2 8 -10 18 -17 15 -13 16 -12 3 4 -13 16 -21 21 -21
13z"/>
<path d="M71590 23156 c7 -7 13 -7 20 0 6 6 3 10 -10 10 -13 0 -16 -4 -10 -10z"/>
<path d="M71639 20633 c-13 -16 -12 -17 4 -4 16 13 21 21 13 21 -2 0 -10 -8
-17 -17z"/>
<path d="M71590 20456 c0 -2 8 -10 18 -17 15 -13 16 -12 3 4 -13 16 -21 21
-21 13z"/>
<path d="M15399 20393 c-13 -16 -12 -17 4 -4 16 13 21 21 13 21 -2 0 -10 -8
-17 -17z"/>
<path d="M71610 20339 c0 -5 5 -7 10 -4 6 3 10 8 10 11 0 2 -4 4 -10 4 -5 0
-10 -5 -10 -11z"/>
<path d="M71650 20339 c0 -5 5 -7 10 -4 6 3 10 8 10 11 0 2 -4 4 -10 4 -5 0
-10 -5 -10 -11z"/>
<path d="M15375 20300 c-3 -5 -1 -10 4 -10 6 0 11 5 11 10 0 6 -2 10 -4 10 -3
0 -8 -4 -11 -10z"/>
<path d="M15390 20136 c0 -2 8 -10 18 -17 15 -13 16 -12 3 4 -13 16 -21 21
-21 13z"/>
<path d="M15399 20073 c-13 -16 -12 -17 4 -4 16 13 21 21 13 21 -2 0 -10 -8
-17 -17z"/>
<path d="M71570 19979 c0 -5 5 -7 10 -4 6 3 10 8 10 11 0 2 -4 4 -10 4 -5 0
-10 -5 -10 -11z"/>
<path d="M71559 19913 c-13 -16 -12 -17 4 -4 9 7 17 15 17 17 0 8 -8 3 -21
-13z"/>
<path d="M71570 19820 c0 -5 5 -10 11 -10 5 0 7 5 4 10 -3 6 -8 10 -11 10 -2
0 -4 -4 -4 -10z"/>
<path d="M15435 19761 c-3 -5 -2 -12 3 -15 5 -3 9 1 9 9 0 17 -3 19 -12 6z"/>
<path d="M15450 19579 c0 -5 5 -7 10 -4 6 3 10 8 10 11 0 2 -4 4 -10 4 -5 0
-10 -5 -10 -11z"/>
<path d="M71506 19562 c-3 -5 1 -9 9 -9 8 0 15 4 15 9 0 4 -4 8 -9 8 -6 0 -12
-4 -15 -8z"/>
<path d="M71510 19536 c0 -2 8 -10 18 -17 15 -13 16 -12 3 4 -13 16 -21 21
-21 13z"/>
<path d="M15465 19480 c-3 -6 1 -7 9 -4 18 7 21 14 7 14 -6 0 -13 -4 -16 -10z"/>
<path d="M71561 19476 c-9 -11 -9 -16 1 -22 7 -4 10 -4 6 1 -4 4 -3 14 3 22 6
7 9 13 6 13 -2 0 -10 -6 -16 -14z"/>
<path d="M15495 19320 c3 -5 8 -10 11 -10 2 0 4 5 4 10 0 6 -5 10 -11 10 -5 0
-7 -4 -4 -10z"/>
<path d="M71460 19286 c0 -2 8 -10 18 -17 15 -13 16 -12 3 4 -13 16 -21 21
-21 13z"/>
<path d="M15555 19080 c3 -5 8 -10 11 -10 2 0 4 5 4 10 0 6 -5 10 -11 10 -5 0
-7 -4 -4 -10z"/>
<path d="M15590 19040 c0 -5 5 -10 11 -10 5 0 7 5 4 10 -3 6 -8 10 -11 10 -2
0 -4 -4 -4 -10z"/>
<path d="M15590 19006 c0 -2 7 -7 16 -10 8 -3 12 -2 9 4 -6 10 -25 14 -25 6z"/>
<path d="M15655 18940 c-3 -5 -1 -10 4 -10 6 0 11 5 11 10 0 6 -2 10 -4 10 -3
0 -8 -4 -11 -10z"/>
<path d="M15615 18920 c-3 -5 -1 -10 4 -10 6 0 11 5 11 10 0 6 -2 10 -4 10 -3
0 -8 -4 -11 -10z"/>
<path d="M71393 18885 c0 -8 4 -15 9 -15 4 0 8 4 8 9 0 6 -4 12 -8 15 -5 3 -9
-1 -9 -9z"/>
<path d="M71360 18880 c-9 -6 -10 -10 -3 -10 6 0 15 5 18 10 8 12 4 12 -15 0z"/>
<path d="M71316 18847 c3 -10 9 -15 12 -12 3 3 0 11 -7 18 -10 9 -11 8 -5 -6z"/>
<path d="M71350 18839 c0 -5 5 -7 10 -4 6 3 10 8 10 11 0 2 -4 4 -10 4 -5 0
-10 -5 -10 -11z"/>
<path d="M15714 18726 c1 -8 5 -18 8 -22 4 -3 5 1 4 10 -1 8 -5 18 -8 22 -4 3
-5 -1 -4 -10z"/>
<path d="M15749 18723 c-13 -16 -12 -17 4 -4 9 7 17 15 17 17 0 8 -8 3 -21
-13z"/>
<path d="M71319 18713 c-13 -16 -12 -17 4 -4 16 13 21 21 13 21 -2 0 -10 -8
-17 -17z"/>
<path d="M71276 18607 c3 -10 9 -15 12 -12 3 3 0 11 -7 18 -10 9 -11 8 -5 -6z"/>
<path d="M71215 18580 c-3 -5 -1 -10 4 -10 6 0 11 5 11 10 0 6 -2 10 -4 10 -3
0 -8 -4 -11 -10z"/>
<path d="M15780 18566 c0 -2 8 -10 18 -17 15 -13 16 -12 3 4 -13 16 -21 21
-21 13z"/>
<path d="M15850 18500 c0 -5 5 -10 11 -10 5 0 7 5 4 10 -3 6 -8 10 -11 10 -2
0 -4 -4 -4 -10z"/>
<path d="M15794 18489 c-3 -6 -2 -15 3 -20 5 -5 9 -1 9 11 0 23 -2 24 -12 9z"/>
<path d="M71150 18456 c0 -2 8 -10 18 -17 15 -13 16 -12 3 4 -13 16 -21 21
-21 13z"/>
<path d="M71210 18420 c0 -5 5 -10 11 -10 5 0 7 5 4 10 -3 6 -8 10 -11 10 -2
0 -4 -4 -4 -10z"/>
<path d="M71175 18320 c-3 -5 -1 -10 4 -10 6 0 11 5 11 10 0 6 -2 10 -4 10 -3
0 -8 -4 -11 -10z"/>
<path d="M15919 18273 c-13 -16 -12 -17 4 -4 16 13 21 21 13 21 -2 0 -10 -8
-17 -17z"/>
<path d="M15906 18238 c3 -5 10 -6 15 -3 13 9 11 12 -6 12 -8 0 -12 -4 -9 -9z"/>
<path d="M15914 18209 c-3 -6 -2 -15 3 -20 5 -5 9 -1 9 11 0 23 -2 24 -12 9z"/>
<path d="M15975 18180 c3 -5 8 -10 11 -10 2 0 4 5 4 10 0 6 -5 10 -11 10 -5 0
-7 -4 -4 -10z"/>
<path d="M71079 18178 c-5 -18 -6 -38 -1 -34 7 8 12 36 6 36 -2 0 -4 -1 -5 -2z"/>
<path d="M71035 18160 c-3 -5 -1 -10 4 -10 6 0 11 5 11 10 0 6 -2 10 -4 10 -3
0 -8 -4 -11 -10z"/>
<path d="M70995 18120 c-3 -5 -1 -10 4 -10 6 0 11 5 11 10 0 6 -2 10 -4 10 -3
0 -8 -4 -11 -10z"/>
<path d="M70986 18082 c-2 -4 4 -8 14 -8 10 0 16 4 14 8 -3 4 -9 8 -14 8 -5 0
-11 -4 -14 -8z"/>
<path d="M16060 18046 c0 -2 8 -10 18 -17 15 -13 16 -12 3 4 -13 16 -21 21
-21 13z"/>
<path d="M70975 18020 c3 -5 8 -10 11 -10 2 0 4 5 4 10 0 6 -5 10 -11 10 -5 0
-7 -4 -4 -10z"/>
<path d="M16035 18001 c-3 -5 -2 -12 3 -15 5 -3 9 1 9 9 0 17 -3 19 -12 6z"/>
<path d="M16036 17958 c3 -5 10 -6 15 -3 13 9 11 12 -6 12 -8 0 -12 -4 -9 -9z"/>
<path d="M70916 17958 c3 -5 10 -6 15 -3 13 9 11 12 -6 12 -8 0 -12 -4 -9 -9z"/>
<path d="M70910 17936 c0 -2 8 -10 18 -17 15 -13 16 -12 3 4 -13 16 -21 21
-21 13z"/>
<path d="M16070 17920 c0 -5 5 -10 11 -10 5 0 7 5 4 10 -3 6 -8 10 -11 10 -2
0 -4 -4 -4 -10z"/>
<path d="M70953 17915 c0 -8 4 -12 9 -9 5 3 6 10 3 15 -9 13 -12 11 -12 -6z"/>
<path d="M16135 17820 c3 -5 8 -10 11 -10 2 0 4 5 4 10 0 6 -5 10 -11 10 -5 0
-7 -4 -4 -10z"/>
<path d="M70850 17739 c0 -5 5 -7 10 -4 6 3 10 8 10 11 0 2 -4 4 -10 4 -5 0
-10 -5 -10 -11z"/>
<path d="M70770 17660 c0 -5 5 -10 11 -10 5 0 7 5 4 10 -3 6 -8 10 -11 10 -2
0 -4 -4 -4 -10z"/>
<path d="M16319 17593 c-13 -16 -12 -17 4 -4 16 13 21 21 13 21 -2 0 -10 -8
-17 -17z"/>
<path d="M70713 17595 c0 -8 4 -12 9 -9 5 3 6 10 3 15 -9 13 -12 11 -12 -6z"/>
<path d="M70710 17556 c7 -7 13 -7 20 0 6 6 3 10 -10 10 -13 0 -16 -4 -10 -10z"/>
<path d="M16335 17500 c3 -5 8 -10 11 -10 2 0 4 5 4 10 0 6 -5 10 -11 10 -5 0
-7 -4 -4 -10z"/>
<path d="M16410 17419 c0 -5 5 -7 10 -4 6 3 10 8 10 11 0 2 -4 4 -10 4 -5 0
-10 -5 -10 -11z"/>
<path d="M70615 17400 c-3 -5 -1 -10 4 -10 6 0 11 5 11 10 0 6 -2 10 -4 10 -3
0 -8 -4 -11 -10z"/>
<path d="M70473 17327 c0 -8 6 -14 14 -14 9 0 10 4 2 14 -6 7 -12 13 -14 13
-1 0 -2 -6 -2 -13z"/>
<path d="M16505 17260 c-3 -6 1 -7 9 -4 18 7 21 14 7 14 -6 0 -13 -4 -16 -10z"/>
<path d="M70439 17218 c-5 -18 -6 -38 -1 -34 7 8 12 36 6 36 -2 0 -4 -1 -5 -2z"/>
<path d="M70396 17202 c-3 -5 1 -9 9 -9 8 0 12 4 9 9 -3 4 -7 8 -9 8 -2 0 -6
-4 -9 -8z"/>
<path d="M16696 17182 c-2 -4 -1 -14 4 -22 7 -11 9 -9 7 8 -1 24 -3 26 -11 14z"/>
<path d="M16710 17082 c0 -5 7 -9 15 -9 8 0 12 4 9 9 -3 4 -9 8 -15 8 -5 0 -9
-4 -9 -8z"/>
<path d="M70335 17060 c3 -5 8 -10 11 -10 2 0 4 5 4 10 0 6 -5 10 -11 10 -5 0
-7 -4 -4 -10z"/>
<path d="M16709 17043 c-13 -16 -12 -17 4 -4 16 13 21 21 13 21 -2 0 -10 -8
-17 -17z"/>
<path d="M16775 17020 c3 -5 8 -10 11 -10 2 0 4 5 4 10 0 6 -5 10 -11 10 -5 0
-7 -4 -4 -10z"/>
<path d="M16810 17020 c0 -5 5 -10 11 -10 5 0 7 5 4 10 -3 6 -8 10 -11 10 -2
0 -4 -4 -4 -10z"/>
<path d="M16735 17000 c-3 -5 -1 -10 4 -10 6 0 11 5 11 10 0 6 -2 10 -4 10 -3
0 -8 -4 -11 -10z"/>
<path d="M70215 16980 c3 -5 8 -10 11 -10 2 0 4 5 4 10 0 6 -5 10 -11 10 -5 0
-7 -4 -4 -10z"/>
<path d="M16906 16818 c3 -5 10 -6 15 -3 13 9 11 12 -6 12 -8 0 -12 -4 -9 -9z"/>
<path d="M70055 16820 c3 -5 8 -10 11 -10 2 0 4 5 4 10 0 6 -5 10 -11 10 -5 0
-7 -4 -4 -10z"/>
<path d="M70115 16820 c-3 -5 -1 -10 4 -10 6 0 11 5 11 10 0 6 -2 10 -4 10 -3
0 -8 -4 -11 -10z"/>
<path d="M69956 16753 c-6 -14 -5 -15 5 -6 7 7 10 15 7 18 -3 3 -9 -2 -12 -12z"/>
<path d="M17015 16740 c-3 -5 -1 -10 4 -10 6 0 11 5 11 10 0 6 -2 10 -4 10 -3
0 -8 -4 -11 -10z"/>
<path d="M69879 16713 c-13 -16 -12 -17 4 -4 16 13 21 21 13 21 -2 0 -10 -8
-17 -17z"/>
<path d="M69800 16660 c-9 -6 -10 -10 -3 -10 6 0 15 5 18 10 8 12 4 12 -15 0z"/>
<path d="M69886 16622 c-3 -5 1 -9 9 -9 8 0 12 4 9 9 -3 4 -7 8 -9 8 -2 0 -6
-4 -9 -8z"/>
<path d="M69735 16540 c-3 -5 -1 -10 4 -10 6 0 11 5 11 10 0 6 -2 10 -4 10 -3
0 -8 -4 -11 -10z"/>
<path d="M69630 16496 c0 -2 8 -10 18 -17 15 -13 16 -12 3 4 -13 16 -21 21
-21 13z"/>
<path d="M69610 16401 c0 -6 4 -13 10 -16 6 -3 7 1 4 9 -7 18 -14 21 -14 7z"/>
<path d="M17477 16355 c-4 -8 -3 -16 1 -19 4 -3 9 4 9 15 2 23 -3 25 -10 4z"/>
<path d="M17515 16360 c-3 -5 -1 -10 4 -10 6 0 11 5 11 10 0 6 -2 10 -4 10 -3
0 -8 -4 -11 -10z"/>
<path d="M17550 16361 c0 -6 4 -13 10 -16 6 -3 7 1 4 9 -7 18 -14 21 -14 7z"/>
<path d="M69480 16360 c-9 -6 -10 -10 -3 -10 6 0 15 5 18 10 8 12 4 12 -15 0z"/>
<path d="M69547 16359 c7 -7 15 -10 18 -7 3 3 -2 9 -12 12 -14 6 -15 5 -6 -5z"/>
<path d="M17690 16299 c0 -5 5 -7 10 -4 6 3 10 8 10 11 0 2 -4 4 -10 4 -5 0
-10 -5 -10 -11z"/>
<path d="M69455 16280 c-3 -5 -1 -10 4 -10 6 0 11 5 11 10 0 6 -2 10 -4 10 -3
0 -8 -4 -11 -10z"/>
<path d="M69295 16260 c3 -5 8 -10 11 -10 2 0 4 5 4 10 0 6 -5 10 -11 10 -5 0
-7 -4 -4 -10z"/>
<path d="M69415 16260 c3 -5 8 -10 11 -10 2 0 4 5 4 10 0 6 -5 10 -11 10 -5 0
-7 -4 -4 -10z"/>
<path d="M17635 16249 c-4 -6 -5 -12 -2 -15 2 -3 7 2 10 11 7 17 1 20 -8 4z"/>
<path d="M17775 16220 c-3 -5 -1 -10 4 -10 6 0 11 5 11 10 0 6 -2 10 -4 10 -3
0 -8 -4 -11 -10z"/>
<path d="M69266 16198 c3 -4 9 -8 15 -8 5 0 9 4 9 8 0 5 -7 9 -15 9 -8 0 -12
-4 -9 -9z"/>
<path d="M17776 16162 c-3 -5 1 -9 9 -9 8 0 12 4 9 9 -3 4 -7 8 -9 8 -2 0 -6
-4 -9 -8z"/>
<path d="M69095 16140 c-3 -5 -1 -10 4 -10 6 0 11 5 11 10 0 6 -2 10 -4 10 -3
0 -8 -4 -11 -10z"/>
<path d="M17839 16113 c-13 -16 -12 -17 4 -4 9 7 17 15 17 17 0 8 -8 3 -21
-13z"/>
<path d="M17947 16119 c7 -7 15 -10 18 -7 3 3 -2 9 -12 12 -14 6 -15 5 -6 -5z"/>
<path d="M18035 16089 c-4 -6 -5 -12 -2 -15 2 -3 7 2 10 11 7 17 1 20 -8 4z"/>
<path d="M69020 16086 c0 -2 8 -10 18 -17 15 -13 16 -12 3 4 -13 16 -21 21
-21 13z"/>
<path d="M68936 16053 c-6 -14 -5 -15 5 -6 7 7 10 15 7 18 -3 3 -9 -2 -12 -12z"/>
<path d="M69025 16039 c-3 -4 2 -6 10 -5 21 3 28 13 10 13 -9 0 -18 -4 -20 -8z"/>
<path d="M18135 16020 c3 -5 8 -10 11 -10 2 0 4 5 4 10 0 6 -5 10 -11 10 -5 0
-7 -4 -4 -10z"/>
<path d="M18050 15979 c0 -5 5 -7 10 -4 6 3 10 8 10 11 0 2 -4 4 -10 4 -5 0
-10 -5 -10 -11z"/>
<path d="M68834 15920 c0 -13 4 -16 10 -10 7 7 7 13 0 20 -6 6 -10 3 -10 -10z"/>
<path d="M68716 15918 c3 -5 10 -6 15 -3 13 9 11 12 -6 12 -8 0 -12 -4 -9 -9z"/>
<path d="M68756 15922 c-3 -5 1 -9 9 -9 8 0 12 4 9 9 -3 4 -7 8 -9 8 -2 0 -6
-4 -9 -8z"/>
<path d="M68796 15918 c3 -5 10 -6 15 -3 13 9 11 12 -6 12 -8 0 -12 -4 -9 -9z"/>
<path d="M18295 15880 c-3 -5 -1 -10 4 -10 6 0 11 5 11 10 0 6 -2 10 -4 10 -3
0 -8 -4 -11 -10z"/>
<path d="M68615 15880 c3 -5 8 -10 11 -10 2 0 4 5 4 10 0 6 -5 10 -11 10 -5 0
-7 -4 -4 -10z"/>
<path d="M68750 15886 c0 -2 7 -7 16 -10 8 -3 12 -2 9 4 -6 10 -25 14 -25 6z"/>
<path d="M68470 15796 c7 -7 13 -7 20 0 6 6 3 10 -10 10 -13 0 -16 -4 -10 -10z"/>
<path d="M18690 15779 c0 -5 5 -7 10 -4 6 3 10 8 10 11 0 2 -4 4 -10 4 -5 0
-10 -5 -10 -11z"/>
<path d="M68375 15780 c3 -5 8 -10 11 -10 2 0 4 5 4 10 0 6 -5 10 -11 10 -5 0
-7 -4 -4 -10z"/>
<path d="M68335 15740 c-3 -5 -1 -10 4 -10 6 0 11 5 11 10 0 6 -2 10 -4 10 -3
0 -8 -4 -11 -10z"/>
<path d="M68190 15720 c0 -5 5 -10 11 -10 5 0 7 5 4 10 -3 6 -8 10 -11 10 -2
0 -4 -4 -4 -10z"/>
<path d="M68224 15722 c4 -3 14 -7 22 -8 9 -1 13 0 10 4 -4 3 -14 7 -22 8 -9
1 -13 0 -10 -4z"/>
<path d="M18909 15683 c-13 -16 -12 -17 4 -4 9 7 17 15 17 17 0 8 -8 3 -21
-13z"/>
<path d="M19055 15580 c3 -5 8 -10 11 -10 2 0 4 5 4 10 0 6 -5 10 -11 10 -5 0
-7 -4 -4 -10z"/>
<path d="M67735 15580 c-3 -5 -1 -10 4 -10 6 0 11 5 11 10 0 6 -2 10 -4 10 -3
0 -8 -4 -11 -10z"/>
<path d="M67850 15579 c0 -5 5 -7 10 -4 6 3 10 8 10 11 0 2 -4 4 -10 4 -5 0
-10 -5 -10 -11z"/>
<path d="M67970 15579 c0 -5 5 -7 10 -4 6 3 10 8 10 11 0 2 -4 4 -10 4 -5 0
-10 -5 -10 -11z"/>
<path d="M19400 15560 c-9 -6 -10 -10 -3 -10 6 0 15 5 18 10 8 12 4 12 -15 0z"/>
<path d="M19353 15525 c0 -8 4 -12 9 -9 5 3 6 10 3 15 -9 13 -12 11 -12 -6z"/>
<path d="M19630 15536 c0 -2 8 -10 18 -17 15 -13 16 -12 3 4 -13 16 -21 21
-21 13z"/>
<path d="M19319 15513 c-13 -16 -12 -17 4 -4 16 13 21 21 13 21 -2 0 -10 -8
-17 -17z"/>
<path d="M19385 15520 c-3 -6 1 -7 9 -4 18 7 21 14 7 14 -6 0 -13 -4 -16 -10z"/>
<path d="M67510 15526 c0 -2 7 -7 16 -10 8 -3 12 -2 9 4 -6 10 -25 14 -25 6z"/>
<path d="M67635 15520 c-3 -5 -1 -10 4 -10 6 0 11 5 11 10 0 6 -2 10 -4 10 -3
0 -8 -4 -11 -10z"/>
<path d="M19770 15460 c0 -5 5 -10 11 -10 5 0 7 5 4 10 -3 6 -8 10 -11 10 -2
0 -4 -4 -4 -10z"/>
<path d="M20015 15460 c3 -5 8 -10 11 -10 2 0 4 5 4 10 0 6 -5 10 -11 10 -5 0
-7 -4 -4 -10z"/>
<path d="M66575 15460 c-3 -5 -1 -10 4 -10 6 0 11 5 11 10 0 6 -2 10 -4 10 -3
0 -8 -4 -11 -10z"/>
<path d="M67476 15458 c3 -4 11 -5 19 -1 21 7 19 12 -4 10 -11 0 -18 -5 -15
-9z"/>
<path d="M20269 15443 c-13 -16 -12 -17 4 -4 9 7 17 15 17 17 0 8 -8 3 -21
-13z"/>
<path d="M67393 15445 c0 -8 4 -12 9 -9 5 3 6 10 3 15 -9 13 -12 11 -12 -6z"/>
<path d="M46020 15446 c0 -2 8 -10 18 -17 15 -13 16 -12 3 4 -13 16 -21 21
-21 13z"/>
<path d="M56260 15446 c0 -2 8 -10 18 -17 15 -13 16 -12 3 4 -13 16 -21 21
-21 13z"/>
<path d="M67159 15433 c-13 -16 -12 -17 4 -4 9 7 17 15 17 17 0 8 -8 3 -21
-13z"/>
<path d="M67335 15440 c-3 -5 -1 -10 4 -10 6 0 11 5 11 10 0 6 -2 10 -4 10 -3
0 -8 -4 -11 -10z"/>
<path d="M19755 15431 c-3 -5 -2 -12 3 -15 5 -3 9 1 9 9 0 17 -3 19 -12 6z"/>
<path d="M20135 15420 c-3 -5 -1 -10 4 -10 6 0 11 5 11 10 0 6 -2 10 -4 10 -3
0 -8 -4 -11 -10z"/>
<path d="M67210 15419 c0 -5 5 -7 10 -4 6 3 10 8 10 11 0 2 -4 4 -10 4 -5 0
-10 -5 -10 -11z"/>
<path d="M66954 15400 c0 -13 4 -16 10 -10 7 7 7 13 0 20 -6 6 -10 3 -10 -10z"/>
<path d="M66993 15405 c0 -8 4 -12 9 -9 5 3 6 10 3 15 -9 13 -12 11 -12 -6z"/>
<path d="M51039 15393 c-13 -16 -12 -17 4 -4 16 13 21 21 13 21 -2 0 -10 -8
-17 -17z"/>
<path d="M61279 15393 c-13 -16 -12 -17 4 -4 9 7 17 15 17 17 0 8 -8 3 -21
-13z"/>
<path d="M66556 15393 c-6 -14 -5 -15 5 -6 7 7 10 15 7 18 -3 3 -9 -2 -12 -12z"/>
<path d="M67026 15402 c-3 -5 1 -9 9 -9 8 0 15 4 15 9 0 4 -4 8 -9 8 -6 0 -12
-4 -15 -8z"/>
<path d="M20250 15385 c0 -7 30 -13 34 -7 3 4 -4 9 -15 9 -10 1 -19 0 -19 -2z"/>
<path d="M20375 15380 c-3 -5 -1 -10 4 -10 6 0 11 5 11 10 0 6 -2 10 -4 10 -3
0 -8 -4 -11 -10z"/>
<path d="M66756 15382 c-3 -5 1 -9 9 -9 8 0 12 4 9 9 -3 4 -7 8 -9 8 -2 0 -6
-4 -9 -8z"/>
<path d="M5130 10220 c0 -5 5 -10 11 -10 5 0 7 5 4 10 -3 6 -8 10 -11 10 -2 0
-4 -4 -4 -10z"/>
<path d="M5196 10153 c-6 -14 -5 -15 5 -6 7 7 10 15 7 18 -3 3 -9 -2 -12 -12z"/>
<path d="M5184 10122 c4 -3 14 -7 22 -8 9 -1 13 0 10 4 -4 3 -14 7 -22 8 -9 1
-13 0 -10 -4z"/>
<path d="M5195 10091 c-3 -5 -2 -12 3 -15 5 -3 9 1 9 9 0 17 -3 19 -12 6z"/>
<path d="M5156 10082 c-3 -5 1 -9 9 -9 8 0 12 4 9 9 -3 4 -7 8 -9 8 -2 0 -6
-4 -9 -8z"/>
<path d="M66535 10041 c-3 -5 -2 -12 3 -15 5 -3 9 1 9 9 0 17 -3 19 -12 6z"/>
<path d="M5215 9980 c3 -5 8 -10 11 -10 2 0 4 5 4 10 0 6 -5 10 -11 10 -5 0
-7 -4 -4 -10z"/>
<path d="M66535 9969 c-4 -6 -5 -12 -2 -15 2 -3 7 2 10 11 7 17 1 20 -8 4z"/>
<path d="M5130 9939 c0 -5 5 -7 10 -4 6 3 10 8 10 11 0 2 -4 4 -10 4 -5 0 -10
-5 -10 -11z"/>
<path d="M66505 9800 c-3 -6 1 -7 9 -4 18 7 21 14 7 14 -6 0 -13 -4 -16 -10z"/>
<path d="M5210 9779 c0 -5 5 -7 10 -4 6 3 10 8 10 11 0 2 -4 4 -10 4 -5 0 -10
-5 -10 -11z"/>
<path d="M66507 9759 c7 -7 15 -10 18 -7 3 3 -2 9 -12 12 -14 6 -15 5 -6 -5z"/>
<path d="M66479 9633 c-13 -16 -12 -17 4 -4 9 7 17 15 17 17 0 8 -8 3 -21 -13z"/>
<path d="M66490 9579 c0 -5 5 -7 10 -4 6 3 10 8 10 11 0 2 -4 4 -10 4 -5 0
-10 -5 -10 -11z"/>
<path d="M66475 9460 c-3 -5 -1 -10 4 -10 6 0 11 5 11 10 0 6 -2 10 -4 10 -3
0 -8 -4 -11 -10z"/>
<path d="M5276 9407 c3 -10 9 -15 12 -12 3 3 0 11 -7 18 -10 9 -11 8 -5 -6z"/>
<path d="M66466 9398 c3 -5 10 -6 15 -3 13 9 11 12 -6 12 -8 0 -12 -4 -9 -9z"/>
<path d="M66453 9309 c-2 -23 3 -25 10 -4 4 8 3 16 -1 19 -4 3 -9 -4 -9 -15z"/>
<path d="M66390 9281 c0 -6 4 -13 10 -16 6 -3 7 1 4 9 -7 18 -14 21 -14 7z"/>
<path d="M5260 9165 c0 -2 6 -8 13 -14 10 -8 14 -7 14 2 0 8 -6 14 -14 14 -7
0 -13 -1 -13 -2z"/>
<path d="M5310 9159 c0 -5 5 -7 10 -4 6 3 10 8 10 11 0 2 -4 4 -10 4 -5 0 -10
-5 -10 -11z"/>
<path d="M66395 9161 c-3 -5 -2 -12 3 -15 5 -3 9 1 9 9 0 17 -3 19 -12 6z"/>
<path d="M5269 9083 c-13 -16 -12 -17 4 -4 9 7 17 15 17 17 0 8 -8 3 -21 -13z"/>
<path d="M5350 8936 c0 -2 8 -10 18 -17 15 -13 16 -12 3 4 -13 16 -21 21 -21
13z"/>
<path d="M5315 8840 c-3 -5 -1 -10 4 -10 6 0 11 5 11 10 0 6 -2 10 -4 10 -3 0
-8 -4 -11 -10z"/>
<path d="M66330 8819 c0 -5 5 -7 10 -4 6 3 10 8 10 11 0 2 -4 4 -10 4 -5 0
-10 -5 -10 -11z"/>
<path d="M5410 8699 c0 -5 5 -7 10 -4 6 3 10 8 10 11 0 2 -4 4 -10 4 -5 0 -10
-5 -10 -11z"/>
<path d="M5455 8660 c-3 -5 -1 -10 4 -10 6 0 11 5 11 10 0 6 -2 10 -4 10 -3 0
-8 -4 -11 -10z"/>
<path d="M5416 8527 c3 -10 9 -15 12 -12 3 3 0 11 -7 18 -10 9 -11 8 -5 -6z"/>
<path d="M66175 8460 c-3 -5 -1 -10 4 -10 6 0 11 5 11 10 0 6 -2 10 -4 10 -3
0 -8 -4 -11 -10z"/>
<path d="M66130 8420 c0 -5 5 -10 11 -10 5 0 7 5 4 10 -3 6 -8 10 -11 10 -2 0
-4 -4 -4 -10z"/>
<path d="M66114 8320 c0 -13 4 -16 10 -10 7 7 7 13 0 20 -6 6 -10 3 -10 -10z"/>
<path d="M66030 8180 c0 -5 5 -10 11 -10 5 0 7 5 4 10 -3 6 -8 10 -11 10 -2 0
-4 -4 -4 -10z"/>
<path d="M66015 8140 c3 -5 8 -10 11 -10 2 0 4 5 4 10 0 6 -5 10 -11 10 -5 0
-7 -4 -4 -10z"/>
<path d="M65993 8075 c0 -8 4 -12 9 -9 5 3 6 10 3 15 -9 13 -12 11 -12 -6z"/>
<path d="M5630 8059 c0 -5 5 -7 10 -4 6 3 10 8 10 11 0 2 -4 4 -10 4 -5 0 -10
-5 -10 -11z"/>
<path d="M65996 8033 c-6 -14 -5 -15 5 -6 7 7 10 15 7 18 -3 3 -9 -2 -12 -12z"/>
<path d="M66030 8041 c0 -6 4 -13 10 -16 6 -3 7 1 4 9 -7 18 -14 21 -14 7z"/>
<path d="M65996 7993 c-6 -14 -5 -15 5 -6 7 7 10 15 7 18 -3 3 -9 -2 -12 -12z"/>
<path d="M65990 7956 c7 -7 13 -7 20 0 6 6 3 10 -10 10 -13 0 -16 -4 -10 -10z"/>
<path d="M65890 7899 c0 -5 5 -7 10 -4 6 3 10 8 10 11 0 2 -4 4 -10 4 -5 0
-10 -5 -10 -11z"/>
<path d="M5815 7820 c-3 -5 -1 -10 4 -10 6 0 11 5 11 10 0 6 -2 10 -4 10 -3 0
-8 -4 -11 -10z"/>
<path d="M65879 7753 c-13 -16 -12 -17 4 -4 9 7 17 15 17 17 0 8 -8 3 -21 -13z"/>
<path d="M65753 7645 c0 -8 4 -12 9 -9 5 3 6 10 3 15 -9 13 -12 11 -12 -6z"/>
<path d="M5869 7603 c-13 -16 -12 -17 4 -4 9 7 17 15 17 17 0 8 -8 3 -21 -13z"/>
<path d="M65770 7580 c0 -5 5 -10 11 -10 5 0 7 5 4 10 -3 6 -8 10 -11 10 -2 0
-4 -4 -4 -10z"/>
<path d="M65695 7420 c3 -5 8 -10 11 -10 2 0 4 5 4 10 0 6 -5 10 -11 10 -5 0
-7 -4 -4 -10z"/>
<path d="M6107 7319 c7 -7 15 -10 18 -7 3 3 -2 9 -12 12 -14 6 -15 5 -6 -5z"/>
<path d="M65559 7313 c-13 -16 -12 -17 4 -4 16 13 21 21 13 21 -2 0 -10 -8
-17 -17z"/>
<path d="M6110 7279 c0 -5 5 -7 10 -4 6 3 10 8 10 11 0 2 -4 4 -10 4 -5 0 -10
-5 -10 -11z"/>
<path d="M65556 7247 c3 -10 9 -15 12 -12 3 3 0 11 -7 18 -10 9 -11 8 -5 -6z"/>
<path d="M6096 7238 c3 -4 11 -5 19 -1 21 7 19 12 -4 10 -11 0 -18 -5 -15 -9z"/>
<path d="M6195 7240 c-3 -5 -1 -10 4 -10 6 0 11 5 11 10 0 6 -2 10 -4 10 -3 0
-8 -4 -11 -10z"/>
<path d="M65510 7186 c0 -2 7 -7 16 -10 8 -3 12 -2 9 4 -6 10 -25 14 -25 6z"/>
<path d="M6313 7035 c0 -8 4 -12 9 -9 5 3 6 10 3 15 -9 13 -12 11 -12 -6z"/>
<path d="M6316 6993 c-6 -14 -5 -15 5 -6 7 7 10 15 7 18 -3 3 -9 -2 -12 -12z"/>
<path d="M65256 6993 c-6 -14 -5 -15 5 -6 7 7 10 15 7 18 -3 3 -9 -2 -12 -12z"/>
<path d="M6373 6905 c0 -8 4 -12 9 -9 5 3 6 10 3 15 -9 13 -12 11 -12 -6z"/>
<path d="M65295 6911 c-3 -5 -2 -12 3 -15 5 -3 9 1 9 9 0 17 -3 19 -12 6z"/>
<path d="M65235 6849 c-4 -6 -5 -12 -2 -15 2 -3 7 2 10 11 7 17 1 20 -8 4z"/>
<path d="M65159 6833 c-13 -16 -12 -17 4 -4 9 7 17 15 17 17 0 8 -8 3 -21 -13z"/>
<path d="M65090 6740 c0 -5 5 -10 11 -10 5 0 7 5 4 10 -3 6 -8 10 -11 10 -2 0
-4 -4 -4 -10z"/>
<path d="M6575 6681 c-3 -5 -2 -12 3 -15 5 -3 9 1 9 9 0 17 -3 19 -12 6z"/>
<path d="M65095 6680 c-3 -5 -1 -10 4 -10 6 0 11 5 11 10 0 6 -2 10 -4 10 -3
0 -8 -4 -11 -10z"/>
<path d="M6710 6656 c0 -2 8 -10 18 -17 15 -13 16 -12 3 4 -13 16 -21 21 -21
13z"/>
<path d="M6795 6580 c-3 -5 -1 -10 4 -10 6 0 11 5 11 10 0 6 -2 10 -4 10 -3 0
-8 -4 -11 -10z"/>
<path d="M64930 6580 c0 -5 5 -10 11 -10 5 0 7 5 4 10 -3 6 -8 10 -11 10 -2 0
-4 -4 -4 -10z"/>
<path d="M6700 6566 c0 -2 8 -10 18 -17 15 -13 16 -12 3 4 -13 16 -21 21 -21
13z"/>
<path d="M6910 6465 c0 -7 30 -13 34 -7 3 4 -4 9 -15 9 -10 1 -19 0 -19 -2z"/>
<path d="M64705 6359 c-3 -4 2 -6 10 -5 21 3 28 13 10 13 -9 0 -18 -4 -20 -8z"/>
<path d="M64580 6325 c0 -2 6 -8 13 -14 10 -8 14 -7 14 2 0 8 -6 14 -14 14 -7
0 -13 -1 -13 -2z"/>
<path d="M7016 6273 c-6 -14 -5 -15 5 -6 7 7 10 15 7 18 -3 3 -9 -2 -12 -12z"/>
<path d="M7116 6207 c3 -10 9 -15 12 -12 3 3 0 11 -7 18 -10 9 -11 8 -5 -6z"/>
<path d="M7250 6180 c0 -5 5 -10 11 -10 5 0 7 5 4 10 -3 6 -8 10 -11 10 -2 0
-4 -4 -4 -10z"/>
<path d="M64515 6180 c-3 -5 -1 -10 4 -10 6 0 11 5 11 10 0 6 -2 10 -4 10 -3
0 -8 -4 -11 -10z"/>
<path d="M7216 6122 c-3 -5 1 -9 9 -9 8 0 12 4 9 9 -3 4 -7 8 -9 8 -2 0 -6 -4
-9 -8z"/>
<path d="M64353 6085 c0 -8 4 -15 9 -15 4 0 8 4 8 9 0 6 -4 12 -8 15 -5 3 -9
-1 -9 -9z"/>
<path d="M64319 6073 c-13 -16 -12 -17 4 -4 16 13 21 21 13 21 -2 0 -10 -8
-17 -17z"/>
<path d="M64255 6060 c-3 -5 -1 -10 4 -10 6 0 11 5 11 10 0 6 -2 10 -4 10 -3
0 -8 -4 -11 -10z"/>
<path d="M7575 5960 c3 -5 8 -10 11 -10 2 0 4 5 4 10 0 6 -5 10 -11 10 -5 0
-7 -4 -4 -10z"/>
<path d="M7530 5939 c0 -5 5 -7 10 -4 6 3 10 8 10 11 0 2 -4 4 -10 4 -5 0 -10
-5 -10 -11z"/>
<path d="M7780 5846 c0 -2 8 -10 18 -17 15 -13 16 -12 3 4 -13 16 -21 21 -21
13z"/>
<path d="M7715 5811 c-3 -5 -2 -12 3 -15 5 -3 9 1 9 9 0 17 -3 19 -12 6z"/>
<path d="M63955 5809 c-4 -6 -5 -12 -2 -15 2 -3 7 2 10 11 7 17 1 20 -8 4z"/>
<path d="M7750 5799 c0 -5 5 -7 10 -4 6 3 10 8 10 11 0 2 -4 4 -10 4 -5 0 -10
-5 -10 -11z"/>
<path d="M63915 5800 c-3 -5 -1 -10 4 -10 6 0 11 5 11 10 0 6 -2 10 -4 10 -3
0 -8 -4 -11 -10z"/>
<path d="M63757 5773 c-10 -9 -9 -23 1 -23 5 0 9 7 9 15 0 17 -1 18 -10 8z"/>
<path d="M7935 5740 c3 -5 8 -10 11 -10 2 0 4 5 4 10 0 6 -5 10 -11 10 -5 0
-7 -4 -4 -10z"/>
<path d="M63795 5731 c-3 -5 -2 -12 3 -15 5 -3 9 1 9 9 0 17 -3 19 -12 6z"/>
<path d="M63746 5722 c-3 -5 1 -9 9 -9 8 0 15 4 15 9 0 4 -4 8 -9 8 -6 0 -12
-4 -15 -8z"/>
<path d="M8029 5683 c-13 -16 -12 -17 4 -4 16 13 21 21 13 21 -2 0 -10 -8 -17
-17z"/>
<path d="M7950 5676 c7 -7 13 -7 20 0 6 6 3 10 -10 10 -13 0 -16 -4 -10 -10z"/>
<path d="M8130 5659 c0 -5 5 -7 10 -4 6 3 10 8 10 11 0 2 -4 4 -10 4 -5 0 -10
-5 -10 -11z"/>
<path d="M63535 5620 c3 -5 8 -10 11 -10 2 0 4 5 4 10 0 6 -5 10 -11 10 -5 0
-7 -4 -4 -10z"/>
<path d="M63595 5620 c-3 -5 -1 -10 4 -10 6 0 11 5 11 10 0 6 -2 10 -4 10 -3
0 -8 -4 -11 -10z"/>
<path d="M8239 5593 c-13 -16 -12 -17 4 -4 9 7 17 15 17 17 0 8 -8 3 -21 -13z"/>
<path d="M8230 5556 c7 -7 13 -7 20 0 6 6 3 10 -10 10 -13 0 -16 -4 -10 -10z"/>
<path d="M63426 5558 c3 -4 9 -8 15 -8 5 0 9 4 9 8 0 5 -7 9 -15 9 -8 0 -12
-4 -9 -9z"/>
<path d="M8480 5520 c-9 -6 -10 -10 -3 -10 6 0 15 5 18 10 8 12 4 12 -15 0z"/>
<path d="M63307 5519 c7 -7 15 -10 18 -7 3 3 -2 9 -12 12 -14 6 -15 5 -6 -5z"/>
<path d="M8464 5482 c4 -3 14 -7 22 -8 9 -1 13 0 10 4 -4 3 -14 7 -22 8 -9 1
-13 0 -10 -4z"/>
<path d="M63199 5473 c-13 -16 -12 -17 4 -4 9 7 17 15 17 17 0 8 -8 3 -21 -13z"/>
<path d="M8570 5459 c0 -5 5 -7 10 -4 6 3 10 8 10 11 0 2 -4 4 -10 4 -5 0 -10
-5 -10 -11z"/>
<path d="M63033 5435 c0 -8 4 -12 9 -9 5 3 6 10 3 15 -9 13 -12 11 -12 -6z"/>
<path d="M63066 5438 c3 -5 10 -6 15 -3 13 9 11 12 -6 12 -8 0 -12 -4 -9 -9z"/>
<path d="M63026 5398 c3 -4 9 -8 15 -8 5 0 9 4 9 8 0 5 -7 9 -15 9 -8 0 -12
-4 -9 -9z"/>
<path d="M8670 5379 c0 -5 5 -7 10 -4 6 3 10 8 10 11 0 2 -4 4 -10 4 -5 0 -10
-5 -10 -11z"/>
<path d="M8756 5367 c3 -10 9 -15 12 -12 3 3 0 11 -7 18 -10 9 -11 8 -5 -6z"/>
<path d="M8790 5360 c0 -5 5 -10 11 -10 5 0 7 5 4 10 -3 6 -8 10 -11 10 -2 0
-4 -4 -4 -10z"/>
<path d="M8835 5331 c-3 -5 -2 -12 3 -15 5 -3 9 1 9 9 0 17 -3 19 -12 6z"/>
<path d="M62630 5336 c0 -2 8 -10 18 -17 15 -13 16 -12 3 4 -13 16 -21 21 -21
13z"/>
<path d="M8913 5315 c0 -8 4 -12 9 -9 5 3 6 10 3 15 -9 13 -12 11 -12 -6z"/>
<path d="M9115 5321 c-3 -5 -2 -12 3 -15 5 -3 9 1 9 9 0 17 -3 19 -12 6z"/>
<path d="M9215 5300 c-3 -5 -1 -10 4 -10 6 0 11 5 11 10 0 6 -2 10 -4 10 -3 0
-8 -4 -11 -10z"/>
<path d="M62570 5300 c0 -5 5 -10 11 -10 5 0 7 5 4 10 -3 6 -8 10 -11 10 -2 0
-4 -4 -4 -10z"/>
<path d="M9050 5281 c0 -6 4 -13 10 -16 6 -3 7 1 4 9 -7 18 -14 21 -14 7z"/>
<path d="M62347 5279 c7 -7 15 -10 18 -7 3 3 -2 9 -12 12 -14 6 -15 5 -6 -5z"/>
<path d="M9085 5260 c-3 -6 1 -7 9 -4 18 7 21 14 7 14 -6 0 -13 -4 -16 -10z"/>
<path d="M9584 5242 c4 -3 14 -7 22 -8 9 -1 13 0 10 4 -4 3 -14 7 -22 8 -9 1
-13 0 -10 -4z"/>
<path d="M61999 5233 c-13 -16 -12 -17 4 -4 9 7 17 15 17 17 0 8 -8 3 -21 -13z"/>
<path d="M62439 5233 c-12 -16 -12 -17 2 -6 9 7 20 9 24 5 5 -4 5 -1 1 6 -9
16 -11 15 -27 -5z"/>
<path d="M9335 5220 c-3 -5 -1 -10 4 -10 6 0 11 5 11 10 0 6 -2 10 -4 10 -3 0
-8 -4 -11 -10z"/>
<path d="M61655 5220 c-3 -5 -1 -10 4 -10 6 0 11 5 11 10 0 6 -2 10 -4 10 -3
0 -8 -4 -11 -10z"/>
<path d="M61770 5219 c0 -5 5 -7 10 -4 6 3 10 8 10 11 0 2 -4 4 -10 4 -5 0
-10 -5 -10 -11z"/>
<path d="M61850 5219 c0 -5 5 -7 10 -4 6 3 10 8 10 11 0 2 -4 4 -10 4 -5 0
-10 -5 -10 -11z"/>
<path d="M9435 5211 c-3 -5 -2 -12 3 -15 5 -3 9 1 9 9 0 17 -3 19 -12 6z"/>
<path d="M35780 5206 c0 -2 8 -10 18 -17 15 -13 16 -12 3 4 -13 16 -21 21 -21
13z"/>
<path d="M61535 5180 c3 -5 8 -10 11 -10 2 0 4 5 4 10 0 6 -5 10 -11 10 -5 0
-7 -4 -4 -10z"/>
<path d="M10149 5163 c-13 -16 -12 -17 4 -4 16 13 21 21 13 21 -2 0 -10 -8
-17 -17z"/>
<path d="M9826 5162 c-2 -4 4 -8 14 -8 10 0 16 4 14 8 -3 4 -9 8 -14 8 -5 0
-11 -4 -14 -8z"/>
<path d="M9870 5166 c0 -2 7 -7 16 -10 8 -3 12 -2 9 4 -6 10 -25 14 -25 6z"/>
<path d="M40799 5153 c-13 -16 -12 -17 4 -4 9 7 17 15 17 17 0 8 -8 3 -21 -13z"/>
<path d="M61599 5153 c-13 -16 -12 -17 4 -4 9 7 17 15 17 17 0 8 -8 3 -21 -13z"/>
<path d="M61950 5160 c0 -5 5 -10 11 -10 5 0 7 5 4 10 -3 6 -8 10 -11 10 -2 0
-4 -4 -4 -10z"/>
<path d="M10050 5139 c0 -5 5 -7 10 -4 6 3 10 8 10 11 0 2 -4 4 -10 4 -5 0
-10 -5 -10 -11z"/>
<path d="M61770 5140 c0 -5 5 -10 11 -10 5 0 7 5 4 10 -3 6 -8 10 -11 10 -2 0
-4 -4 -4 -10z"/>
</g>
</svg>
